<?xml version="1.0" encoding="UTF-8"?> <svg xmlns="http://www.w3.org/2000/svg" xmlns:xlink="http://www.w3.org/1999/xlink" xmlns:xodm="http://www.corel.com/coreldraw/odm/2003" xml:space="preserve" width="25.5mm" height="25.5mm" version="1.1" style="shape-rendering:geometricPrecision; text-rendering:geometricPrecision; image-rendering:optimizeQuality; fill-rule:evenodd; clip-rule:evenodd" viewBox="0 0 571.9 571.9"> <defs> <style type="text/css"> .fil1 {fill:#406FB5} .fil2 {fill:#332C2B;fill-rule:nonzero} .fil0 {fill:#406FB5;fill-rule:nonzero} </style> </defs> <g id="图层_x0020_1"> <metadata id="CorelCorpID_0Corel-Layer"></metadata> <path class="fil0" d="M92.31 0l387.28 0c25.39,0 48.47,10.38 65.2,27.11 16.73,16.73 27.11,39.81 27.11,65.2l0 387.28c0,25.39 -10.38,48.47 -27.11,65.2 -16.73,16.73 -39.81,27.11 -65.2,27.11l-387.28 0c-25.39,0 -48.47,-10.38 -65.2,-27.11 -16.73,-16.73 -27.11,-39.81 -27.11,-65.2l0 -387.28c0,-25.39 10.38,-48.47 27.11,-65.2 16.73,-16.73 39.81,-27.11 65.2,-27.11zm387.28 11.21l-387.28 0c-22.29,0 -42.57,9.13 -57.27,23.83 -14.7,14.7 -23.83,34.98 -23.83,57.27l0 387.28c0,22.29 9.13,42.57 23.83,57.27 14.7,14.7 34.97,23.83 57.27,23.83l387.28 0c22.29,0 42.57,-9.13 57.27,-23.83 14.7,-14.7 23.83,-34.97 23.83,-57.27l0 -387.28c0,-22.29 -9.13,-42.57 -23.83,-57.27 -14.7,-14.7 -34.98,-23.83 -57.27,-23.83z"></path> <g id="_2879960663296"> <path class="fil1" d="M186.15 332.24l18.74 0 -18.74 -31.23 -15.83 -26.3 -67.25 40.39 10.27 17.14 72.8 0zm23.97 31.3c-6.46,-4.16 -14.02,-6.59 -22.21,-6.59l-0.21 0c-22.62,0.14 -41.01,18.6 -41.01,41.22 0,22.63 18.39,41.09 41.01,41.23l0.21 0c8.19,0 15.76,-2.43 22.21,-6.59l0 4.3 18.94 0 0 -104.86 -18.94 0 0 31.3 0 0zm0 38.93c-2.01,10.41 -11.25,18.39 -22.21,18.39l-0.21 0c-12.42,-0.14 -22.48,-10.27 -22.48,-22.69 0,-12.42 10.06,-22.55 22.48,-22.62l0.21 0c10.97,0 20.2,7.91 22.21,18.32l0 8.61 0 0zm150.37 -70.23l91.55 0 -56.98 -94.94 -63.01 -104.8 -25.96 15.62 -41.22 24.78 41.22 68.64 54.41 90.71zm-31.99 31.3c-6.45,-4.16 -14.02,-6.59 -22.21,-6.59l-0.21 0c-22.62,0.14 -41.01,18.6 -41.01,41.22 0,22.63 18.39,41.09 41.01,41.23l0.21 0c8.19,0 15.76,-2.43 22.21,-6.59l0 4.3 18.94 0 0 -104.86 -18.94 0 0 31.3 0 0zm0 38.93c-2.01,10.41 -11.25,18.39 -22.21,18.39l-0.21 0c-12.42,-0.14 -22.49,-10.27 -22.49,-22.7 0,-12.42 10.06,-22.55 22.49,-22.62l0.21 0c10.97,0 20.2,7.91 22.21,18.32l0 8.61 0 0zm88.97 -38.93c-6.59,-4.3 -14.3,-6.59 -22.17,-6.59 -0.01,0 -0.03,0 -0.04,0l-0.21 0c-22.62,0.14 -41.01,18.6 -41.01,41.22 0,22.63 18.39,41.09 41.01,41.23l0.21 0c8.19,0 15.82,-2.43 22.21,-6.59l0 4.3 18.95 0 0 -78.08 -18.95 0 0 4.51zm0 38.93c-2.01,10.41 -11.25,18.39 -22.21,18.39l-0.21 0c-12.42,-0.14 -22.49,-10.27 -22.49,-22.7 0,-12.42 10.07,-22.55 22.49,-22.62l0.21 0c10.96,0 20.2,7.91 22.21,18.32l0 8.61zm86.34 -9.44c-0.69,-0.35 -1.67,-0.7 -2.78,-1.11 -4.23,-1.46 -11.1,-3.26 -20.68,-5.34 -8.4,-1.87 -12.63,-4.3 -12.63,-7.36 0,-2.15 0.76,-3.89 2.22,-5.13 1.94,-1.67 5.41,-2.5 10.41,-2.5 5.07,0 8.74,1.11 10.9,3.26 1.32,1.32 2.29,3.68 2.91,7.01l20.13 0c0,-9.85 -4.03,-16.93 -11.94,-21.24 -0.42,-0.27 -0.86,-0.5 -1.32,-0.69 -5.48,-2.57 -12.77,-3.89 -21.86,-3.89 -11.04,0 -19.36,2.92 -24.91,8.81 -4.44,4.72 -6.59,10.48 -6.59,17.28 0,8.47 4.16,14.58 12.63,18.53 3.19,1.53 10.96,3.68 23.32,6.32 8.26,1.81 12.42,4.38 12.42,7.64 0,1.94 -0.83,3.61 -2.63,5.13 -2.29,1.94 -5.76,2.92 -10.41,2.92 -6.18,0 -10.55,-1.04 -13.12,-3.05 -2.57,-1.94 -3.89,-4.79 -3.89,-8.4l-21.1 0c0,9.58 4.03,16.73 12.15,21.44 6.45,3.68 14.92,5.56 25.41,5.56 7.01,0 13.25,-1.18 18.6,-3.47 1.11,-0.49 2.09,-0.98 3.13,-1.53 8.26,-4.58 12.42,-11.87 12.42,-21.86 -0,-8.2 -4.24,-14.31 -12.77,-18.33l0 0zm-385.05 -29.5c-6.63,-4.3 -14.37,-6.59 -22.27,-6.59l-0.21 0c-22.55,0.14 -40.95,18.6 -40.95,41.22 0,22.63 18.39,41.09 40.95,41.23l0.21 0c8.19,0 15.82,-2.43 22.27,-6.59l0 4.3 18.95 0 0 -78.08 -18.95 0 0 4.51zm0 38.93c-2.01,10.41 -11.25,18.39 -22.27,18.39l-0.21 0c-12.35,-0.14 -22.42,-10.27 -22.42,-22.7 0,-12.42 10.07,-22.55 22.42,-22.62l0.21 0c11.03,0 20.27,7.91 22.27,18.32l0 8.61zm118.26 -51.7l20.61 0 0 -18.11 -20.61 0 0 18.11 0 0zm0 86.33l20.61 0 0 -80.16 -20.61 0 0 80.16 0 0zm91.4 -104.86l-22.35 -37.34 -54.9 -91.33 -65.03 39.14 -2.22 1.32 2.22 3.68 50.8 84.53 91.47 0z"></path> <path class="fil2" d="M382.77 167.23l0 -11.74 5.21 0c1.05,0 1.84,0.11 2.38,0.31 0.54,0.21 0.98,0.58 1.31,1.12 0.33,0.53 0.49,1.12 0.49,1.77 0,0.83 -0.27,1.54 -0.81,2.11 -0.54,0.57 -1.37,0.94 -2.49,1.09 0.41,0.2 0.73,0.4 0.94,0.59 0.45,0.42 0.88,0.94 1.28,1.56l2.03 3.2 -1.94 0 -1.55 -2.44c-0.45,-0.71 -0.83,-1.24 -1.12,-1.62 -0.3,-0.37 -0.56,-0.63 -0.79,-0.78 -0.23,-0.15 -0.47,-0.25 -0.71,-0.31 -0.17,-0.04 -0.46,-0.06 -0.86,-0.06l-1.8 0 0 5.21 -1.56 0zm1.56 -6.56l3.33 0c0.71,0 1.26,-0.07 1.66,-0.22 0.4,-0.15 0.7,-0.38 0.91,-0.71 0.21,-0.32 0.31,-0.67 0.31,-1.05 0,-0.56 -0.2,-1.01 -0.6,-1.37 -0.4,-0.36 -1.04,-0.54 -1.9,-0.54l-3.71 0 0 3.89zm3.07 -9.2c2.74,0 5.22,1.11 7.02,2.91 1.8,1.8 2.91,4.28 2.91,7.02 0,2.74 -1.11,5.22 -2.91,7.02 -1.8,1.8 -4.28,2.91 -7.02,2.91 -2.74,0 -5.22,-1.11 -7.02,-2.91 -3.86,-3.86 -3.86,-10.18 -0,-14.04 1.8,-1.8 4.28,-2.91 7.02,-2.91zm6.04 3.88c-1.54,-1.54 -3.68,-2.5 -6.04,-2.5 -2.36,0 -4.5,0.96 -6.04,2.5 -1.55,1.55 -2.5,3.68 -2.5,6.05 0,2.36 0.96,4.5 2.5,6.04 1.54,1.55 3.68,2.5 6.04,2.5 2.36,0 4.5,-0.96 6.04,-2.5 1.55,-1.54 2.5,-3.68 2.5,-6.04 0,-2.36 -0.96,-4.5 -2.5,-6.05z"></path> </g> </g> </svg> 