<?xml version="1.0" encoding="UTF-8"?> <svg xmlns="http://www.w3.org/2000/svg" xmlns:xlink="http://www.w3.org/1999/xlink" xmlns:xodm="http://www.corel.com/coreldraw/odm/2003" xml:space="preserve" width="25.5mm" height="25.5mm" version="1.1" style="shape-rendering:geometricPrecision; text-rendering:geometricPrecision; image-rendering:optimizeQuality; fill-rule:evenodd; clip-rule:evenodd" viewBox="0 0 652.65 652.65"> <defs> <style type="text/css"> .fil2 {fill:#406FB5;fill-rule:nonzero} .fil0 {fill:black;fill-rule:nonzero} .fil1 {fill:#F3971B;fill-rule:nonzero} </style> </defs> <g id="图层_x0020_1"> <metadata id="CorelCorpID_0Corel-Layer"></metadata> <g id="_2879951619696"> <path class="fil0" d="M165.91 282.4l0 54.04c0,1.82 -1.48,3.3 -3.3,3.3l-17.06 0c-1.82,0 -3.3,-1.48 -3.3,-3.3l0 -87.89c0,-1.82 1.48,-3.3 3.3,-3.3l15.79 0c1.82,0 3.3,1.48 3.3,3.3l0 12.38c0,0 5.64,-17.66 22.39,-17.66 0,0 16.56,-2 23.3,16.38 0,0 5.64,-16.38 22.75,-16.38 0,0 25.45,-1.51 25.45,24.82l0.19 14.5 0 54.04c0,1.82 -1.48,3.3 -3.3,3.3l-17.06 0c-1.82,-0 -3.3,-1.48 -3.3,-3.3l-0.15 -58.95c0.48,-13.35 -10.31,-12.38 -10.31,-12.38 -13.59,0.24 -12.29,17.29 -12.29,17.29l0 54.04c0,1.82 -1.48,3.3 -3.3,3.3l-17.06 0c-1.82,-0 -3.3,-1.48 -3.3,-3.3l0 -57.62c0,0 1,-13.83 -11.14,-13.83 0,0 -12.01,-1.58 -11.59,17.23l0 0zm439.71 -0.16l0 54.03c0,1.82 -1.48,3.3 -3.3,3.3l-17.74 0.34c-1.82,0 -3.3,-1.48 -3.3,-3.3l0 -57.62c0,0 1,-13.83 -11.14,-13.83 0,0 -11.59,-0.57 -11.59,21.12l0 50.15c0,1.82 -1.48,3.3 -3.3,3.3l-17.06 0c-1.82,0 -3.3,-1.48 -3.3,-3.3l0 -87.89c0,-1.82 1.48,-3.3 3.3,-3.3l15.78 0c1.82,0 3.3,1.48 3.3,3.3l0 12.38c0,0 5.64,-17.66 22.39,-17.66 0,0 17.94,-2.72 23.98,16.04 0,-0 1.98,3.87 1.98,22.93zm-123.17 -39.34c-21.81,0 -39.5,18.38 -39.5,49.33 0,27.24 13.65,49.33 39.5,49.33 24.39,0 39.5,-22.09 39.5,-49.33 0,-30.4 -17.69,-49.33 -39.5,-49.33zm13.77 50.42c0,11.65 -1.46,17.84 -1.46,17.84 -2.07,12.32 -11.01,12.33 -12.33,12.27 -1.42,0.06 -10.44,-0.07 -12.3,-12.27 0,0 -1.46,-6.19 -1.46,-17.84l0 -1.94c0,-11.65 1.46,-17.84 1.46,-17.84 1.87,-12.2 10.88,-12.32 12.3,-12.27 1.32,-0.06 10.26,-0.05 12.33,12.27 0,0 1.46,6.19 1.46,17.84l0 1.94zm-63.17 -32.52l0 -12.61c0,-1.82 -1.48,-3.3 -3.3,-3.3l-56.39 0c-1.82,0 -3.3,1.48 -3.3,3.3l0 12.51c0,1.82 1.48,3.3 3.3,3.3l29.41 0 -34.81 50.5c0,0 -1.37,2.05 -1.33,4.31l0 15.36c0,0 -0.23,5.27 5.75,2.21 0,0 10.61,-6.41 28.4,-6.41 0,0 17.57,-0.22 29.28,6.96 0,0 4.86,2.21 4.86,-2.65l0 -13.37c0,0 0.44,-3.54 -4.2,-5.75 0,0 -13.48,-7.4 -31.16,-6.19l33.48 -48.18zm-303.97 63.22l-5.34 -8.13c-1.7,-3.04 -1.58,-6.43 -1.58,-6.43l0 -37.5c0.73,-32.4 -35.19,-29.61 -35.19,-29.61 -31.93,0 -36.65,24.85 -36.65,24.85 -1.33,5 2.54,5.12 2.54,5.12l15.6 1.58c0,0 2.66,0.61 3.63,-2.56 0,0 2.05,-10.84 13.54,-10.84 12.5,0 12.37,10.73 12.37,10.73l0 8.98c-24.96,0.83 -36.53,7.76 -36.53,7.76 -15.41,8.74 -14.44,26.09 -14.44,26.09 0,28.27 26.94,27.06 26.94,27.06 17.23,0 27.42,-12.62 27.42,-12.62 3.03,5.34 8.62,10.43 8.62,10.43 2.79,3.03 5.7,0.49 5.7,0.49l12.62 -10.8c2.79,-2.06 0.73,-4.61 0.73,-4.61l0 0zm-46.69 -0.35c-8.1,0 -11.12,-8.05 -9.77,-15.97 1.35,-7.92 8.34,-14.14 25.39,-13.96l0 4.81c0.6,21.02 -8.87,25.11 -15.62,25.11l0 -0zm273.37 0.35l-5.34 -8.13c-1.7,-3.04 -1.58,-6.43 -1.58,-6.43l0 -37.5c0.73,-32.4 -35.19,-29.61 -35.19,-29.61 -31.93,0 -36.65,24.85 -36.65,24.85 -1.33,5 2.54,5.12 2.54,5.12l15.6 1.58c0,0 2.66,0.61 3.63,-2.56 0,0 2.06,-10.84 13.55,-10.84 12.5,0 12.37,10.73 12.37,10.73l0 8.98c-24.96,0.83 -36.53,7.76 -36.53,7.76 -15.41,8.74 -14.44,26.09 -14.44,26.09 0,28.27 26.94,27.06 26.94,27.06 17.23,0 27.43,-12.62 27.43,-12.62 3.03,5.34 8.61,10.43 8.61,10.43 2.79,3.03 5.7,0.49 5.7,0.49l12.62 -10.8c2.79,-2.06 0.73,-4.61 0.73,-4.61l0 0zm-46.69 -0.35c-8.11,0 -11.12,-8.05 -9.77,-15.97 1.35,-7.92 8.34,-14.14 25.39,-13.96l0 4.81c0.61,21.02 -8.87,25.11 -15.62,25.11l0 -0z"></path> <g> <path class="fil1" d="M398.71 394.99c0,0 -1.43,2.48 0.33,3.04 0,0 1.98,0.77 4.45,-1.52 0,0 18.01,-15.74 18.45,-44.38 0,0 0.13,-3.58 -1.3,-4.56 0,0 -5.64,-4.99 -25.93,-3.47 0,0 -17.69,1.2 -27.34,9.77 0,0 -0.87,0.76 -0.87,1.74 0,0 -0.21,2.11 5.1,1.19 0,0 17.69,-2.5 28.21,-1.19 0,0 5.43,0.65 6.95,2.5 0,0 2.5,2.06 1.19,8.89 0,0.01 -3.58,17.37 -9.22,28l0 0z"></path> <path class="fil1" d="M395.15 367.51c0,0 2.64,3.42 -1.62,6.38 0,0 -45.53,36.42 -121.98,36.42 0,0 -78.7,3.88 -144.41,-55.82 0,0 -2.3,-2.02 -0.87,-3.9 0,0 1.28,-1.73 4.59,0.15 0,0 61.81,38.52 143,38.52 0,0 56.43,2.18 114.31,-22.57 0,0 4.61,-2.39 6.98,0.83l0 0z"></path> </g> </g> <path class="fil2" d="M105.34 0l441.96 0c28.97,0 55.31,11.85 74.4,30.94 19.09,19.09 30.94,45.43 30.94,74.4l0 441.96c0,28.97 -11.85,55.31 -30.94,74.4 -19.09,19.09 -45.43,30.94 -74.4,30.94l-441.96 0c-28.97,0 -55.32,-11.85 -74.4,-30.94 -19.09,-19.09 -30.94,-45.43 -30.94,-74.4l0 -441.96c0,-28.97 11.85,-55.32 30.94,-74.4 19.09,-19.09 45.43,-30.94 74.4,-30.94zm441.96 12.8l-441.96 0c-25.44,0 -48.58,10.42 -65.35,27.19 -16.77,16.77 -27.19,39.91 -27.19,65.35l0 441.96c0,25.44 10.42,48.58 27.19,65.35 16.77,16.77 39.91,27.19 65.35,27.19l441.96 0c25.44,0 48.58,-10.42 65.35,-27.19 16.77,-16.77 27.19,-39.91 27.19,-65.35l0 -441.96c0,-25.44 -10.42,-48.58 -27.19,-65.35 -16.77,-16.77 -39.91,-27.19 -65.35,-27.19z"></path> </g> </svg> 