<?xml version="1.0" encoding="UTF-8"?> <svg xmlns="http://www.w3.org/2000/svg" xmlns:xlink="http://www.w3.org/1999/xlink" xmlns:xodm="http://www.corel.com/coreldraw/odm/2003" xml:space="preserve" width="25.5mm" height="25.5mm" version="1.1" style="shape-rendering:geometricPrecision; text-rendering:geometricPrecision; image-rendering:optimizeQuality; fill-rule:evenodd; clip-rule:evenodd" viewBox="0 0 1526.8 1526.8"> <defs> <style type="text/css"> .fil0 {fill:#332C2B;fill-rule:nonzero} .fil1 {fill:#406FB5;fill-rule:nonzero} </style> </defs> <g id="图层_x0020_1"> <metadata id="CorelCorpID_0Corel-Layer"></metadata> <g id="_2876240985424"> <path class="fil0" d="M439.05 776.42c-0.5,-52.5 42.89,-77.74 44.85,-78.93 -24.43,-35.69 -62.37,-40.59 -75.89,-41.15 -32.28,-3.31 -63.02,19.02 -79.44,19.02 -16.42,0 -41.7,-18.57 -68.47,-18.02 -35.24,0.5 -67.72,20.47 -85.9,52.01 -36.54,63.37 -9.31,157.47 26.38,208.98 17.47,25.18 38.19,53.56 65.52,52.5 26.33,-1.05 36.24,-17.02 67.98,-17.02 31.73,0 40.69,17.02 68.47,16.52 28.28,-0.55 46.2,-25.73 63.52,-51.01 19.92,-29.28 28.18,-57.56 28.68,-59.07 -0.65,-0.25 -55.11,-21.12 -55.71,-83.84z"></path> <g> <path class="fil0" d="M386.84 622.21c14.51,-17.57 24.28,-41.94 21.63,-66.27 -20.88,0.85 -46.15,13.91 -61.12,31.48 -13.42,15.52 -25.18,40.34 -21.97,64.17 23.18,1.8 47,-11.86 61.47,-29.38l0 0zm235.26 205.82l-24.03 72.83 -30.88 0 78.64 -231.45 36.04 0 78.93 231.45 -31.93 0 -24.73 -72.83 -82.04 0zm75.89 -23.38l-22.63 -66.62c-5.16,-15.12 -8.56,-28.83 -12.01,-42.25l-0.65 0c-3.45,13.72 -7.21,27.78 -11.66,41.9l-22.63 66.92 69.58 0.05zm86.24 -15.76c0,-21.27 -0.65,-38.49 -1.4,-54.26l27.13 0 1.4 28.53 0.65 0c12.36,-20.27 31.93,-32.28 59.07,-32.28 40.19,0 70.38,33.98 70.38,84.49 0,59.77 -36.39,89.25 -75.53,89.25 -21.98,0 -41.2,-9.61 -51.16,-26.08l-0.65 0 0 90.3 -29.88 0 0 -179.95zm29.84 44.3c0,4.5 0.65,8.56 1.4,12.36 5.5,20.93 23.67,35.39 45.35,35.39 31.93,0 50.5,-26.08 50.5,-64.22 0,-33.34 -17.52,-61.77 -49.46,-61.77 -20.57,0 -39.79,14.77 -45.7,37.44 -1.05,3.75 -2.05,8.26 -2.05,12.36l-0.05 28.43 0 0zm158.62 -44.3c0,-21.27 -0.65,-38.49 -1.4,-54.26l27.13 0 1.4 28.53 0.65 0c12.36,-20.27 31.94,-32.28 59.07,-32.28 40.19,0 70.38,33.98 70.38,84.49 0,59.77 -36.39,89.25 -75.53,89.25 -21.97,0 -41.19,-9.61 -51.16,-26.08l-0.65 0 0 90.3 -29.88 0 0 -179.95zm29.88 44.3c0,4.5 0.65,8.56 1.4,12.36 5.51,20.93 23.68,35.39 45.35,35.39 31.94,0 50.51,-26.08 50.51,-64.22 0,-33.34 -17.52,-61.77 -49.46,-61.77 -20.57,0 -39.79,14.77 -45.7,37.44 -1.05,3.75 -2.05,8.26 -2.05,12.36l-0.05 28.43 0 0zm158.63 -176.15l30.23 0 0 243.77 -30.23 0 0 -243.77zm91 166.18c0.65,40.85 26.78,57.71 56.96,57.71 21.63,0 34.69,-3.75 46,-8.56l5.16 21.63c-10.61,4.81 -28.83,10.31 -55.26,10.31 -51.16,0 -81.74,-33.64 -81.74,-83.79 0,-50.15 29.53,-89.64 77.93,-89.64 54.26,0 68.68,47.7 68.68,78.29 0,6.2 -0.65,10.96 -1.05,14.06l-116.68 0zm88.6 -21.63c0.35,-19.22 -7.91,-49.1 -41.9,-49.1 -30.58,0 -43.95,28.18 -46.35,49.1l88.25 0z"></path> </g> </g> <path class="fil1" d="M246.43 0l1033.93 0c67.78,0 129.41,27.72 174.06,72.38 44.65,44.65 72.38,106.28 72.38,174.06l0 1033.93c0,67.78 -27.72,129.41 -72.38,174.06 -44.65,44.65 -106.28,72.38 -174.06,72.38l-1033.93 0c-67.78,0 -129.4,-27.72 -174.06,-72.38 -44.65,-44.65 -72.38,-106.27 -72.38,-174.06l0 -1033.93c0,-67.78 27.72,-129.41 72.38,-174.06 44.65,-44.65 106.27,-72.38 174.06,-72.38zm1033.93 29.94l-1033.93 0c-59.52,0 -113.64,24.37 -152.88,63.61 -39.24,39.24 -63.61,93.37 -63.61,152.89l0 1033.93c0,59.52 24.37,113.64 63.61,152.88 39.24,39.24 93.37,63.61 152.88,63.61l1033.93 0c59.52,0 113.65,-24.37 152.89,-63.61 39.24,-39.24 63.61,-93.37 63.61,-152.88l0 -1033.93c0,-59.52 -24.37,-113.65 -63.61,-152.89 -39.24,-39.24 -93.37,-63.61 -152.89,-63.61z"></path> </g> </svg> 