<?xml version="1.0" encoding="UTF-8"?> <svg xmlns="http://www.w3.org/2000/svg" xmlns:xlink="http://www.w3.org/1999/xlink" xmlns:xodm="http://www.corel.com/coreldraw/odm/2003" xml:space="preserve" width="25.5mm" height="25.5mm" version="1.1" style="shape-rendering:geometricPrecision; text-rendering:geometricPrecision; image-rendering:optimizeQuality; fill-rule:evenodd; clip-rule:evenodd" viewBox="0 0 2279.84 2279.84"> <defs> <style type="text/css"> .fil1 {fill:black} .fil2 {fill:#00ACEC} .fil3 {fill:white} .fil4 {fill:#FEFEFE;fill-rule:nonzero} .fil0 {fill:#406FB5;fill-rule:nonzero} </style> </defs> <g id="图层_x0020_1"> <metadata id="CorelCorpID_0Corel-Layer"></metadata> <path class="fil0" d="M367.97 0l1543.88 0c101.22,0 193.23,41.39 259.91,108.07 66.68,66.68 108.07,158.69 108.07,259.91l0 1543.88c0,101.22 -41.39,193.22 -108.07,259.9 -66.68,66.68 -158.69,108.07 -259.91,108.07l-1543.88 0c-101.22,0 -193.22,-41.39 -259.9,-108.07 -66.68,-66.67 -108.07,-158.69 -108.07,-259.9l0 -1543.88c0,-101.22 41.39,-193.23 108.07,-259.91 66.68,-66.68 158.69,-108.07 259.9,-108.07zm1543.88 44.7l-1543.88 0c-88.87,0 -169.69,36.39 -228.29,94.98 -58.6,58.6 -94.98,139.43 -94.98,228.3l0 1543.88c0,88.87 36.39,169.7 94.98,228.29 58.6,58.6 139.42,94.98 228.29,94.98l1543.88 0c88.87,0 169.7,-36.39 228.3,-94.98 58.6,-58.6 94.98,-139.42 94.98,-228.29l0 -1543.88c0,-88.87 -36.39,-169.7 -94.98,-228.3 -58.6,-58.6 -139.43,-94.98 -228.3,-94.98z"></path> <g id="_2879594885280"> <path class="fil1" d="M1139.92 254.87c487.47,0 885.05,397.59 885.05,885.05 0,487.47 -397.58,885.05 -885.05,885.05 -487.46,0 -885.05,-397.58 -885.05,-885.05 0,-487.46 397.59,-885.05 885.05,-885.05z"></path> <path class="fil2" d="M1662.73 1148.69c0,283.13 -230.92,514.04 -514.05,514.04l0 -514.04 514.05 0z"></path> <path class="fil3" d="M1662.73 1131.16c0,-283.13 -230.92,-514.04 -514.05,-514.04l0 514.04 514.05 0z"></path> <path class="fil2" d="M617.11 1131.16c0,-283.13 230.92,-514.04 514.04,-514.04l0 514.04 -514.04 0z"></path> <path class="fil3" d="M617.11 1148.69c0,283.13 230.92,514.04 514.04,514.04l0 -514.04 -514.04 0z"></path> <path class="fil4" d="M1537.9 703.86l144.55 -195.99 19.72 24.35 -97.89 124.56c-10.03,12.91 -20.53,25.55 -31.33,37.88 23.29,-11.27 36.71,-17.71 40.41,-19.34l151.29 -66.08 23.21 28.65 -71.89 100.79c-17.76,25.05 -35.63,47.21 -53.5,66.46 13.38,-7.11 29.13,-14.89 47.06,-23.34l140.45 -67.25 19.36 23.88 -222.98 99.21 -18.54 -22.89 108.89 -150.84c9.11,-12.64 14.75,-20.32 16.92,-23.05 -9.93,4.93 -18.52,8.98 -25.76,12.15l-170.33 75.01 -19.62 -24.21 -0.03 0.05zm-912.18 170.63l-208.84 -179.63 78.2 -90.93c15.91,-18.5 30.81,-31.5 44.6,-39.06 13.88,-7.59 27.91,-10.73 42.15,-9.48 14.18,1.21 26.13,5.9 35.76,14.18 8.9,7.65 14.89,17.71 17.91,30.12 3.08,12.36 2.12,26.37 -2.77,41.88 16.31,-11.48 32.29,-17.27 47.97,-17.51 15.74,-0.2 29.68,4.93 41.84,15.38 9.6,8.19 16.89,18.78 21.08,30.68 4.28,12.03 5.65,23.51 4.16,34.49 -1.48,10.99 -5.7,22.77 -12.49,35.38 -6.79,12.62 -16.83,26.64 -30.12,42.1l-79.46 92.4zm-89.41 -132.91l45.06 -52.39c12.19,-14.17 20.13,-25.09 23.87,-32.67 4.89,-9.92 6.72,-19.04 5.41,-27.34 -1.33,-8.3 -5.61,-15.61 -12.91,-21.89 -6.9,-5.94 -14.67,-9.29 -23.23,-9.97 -8.65,-0.67 -17,1.76 -25.05,7.2 -8.1,5.49 -19.65,16.95 -34.65,34.38l-41.62 48.4 63.12 54.29 0 0zm96.42 82.93l51.86 -60.29c8.92,-10.38 14.84,-17.94 17.8,-22.67 5.19,-8.39 8.57,-16.17 10.17,-23.42 1.65,-7.23 1.25,-14.64 -1.04,-22.2 -2.4,-7.55 -6.82,-14.2 -13.48,-19.94 -7.78,-6.69 -16.53,-10.19 -26.29,-10.54 -9.71,-0.3 -19.28,2.65 -28.7,8.89 -9.32,6.2 -20.67,17.05 -33.92,32.45l-48.16 56 71.77 61.73zm340.22 -258.6l0 -236.24 62.28 0 73.92 167.26c6.84,15.57 11.86,27.23 14.92,34.98 3.56,-8.58 9.09,-21.23 16.66,-37.89l74.8 -164.35 55.65 0 0 236.24 -39.87 0 0 -197.74 -90.81 197.74 -37.32 0 -90.37 -201.09 0 201.09 -39.87 0z"></path> </g> </g> </svg> 