<?xml version="1.0" encoding="UTF-8"?> <svg xmlns="http://www.w3.org/2000/svg" xmlns:xlink="http://www.w3.org/1999/xlink" xmlns:xodm="http://www.corel.com/coreldraw/odm/2003" xml:space="preserve" width="25.5mm" height="25.5mm" version="1.1" style="shape-rendering:geometricPrecision; text-rendering:geometricPrecision; image-rendering:optimizeQuality; fill-rule:evenodd; clip-rule:evenodd" viewBox="0 0 380.83 380.83"> <defs> <style type="text/css"> .fil1 {fill:#406FB5;fill-rule:nonzero} .fil0 {fill:#F40009;fill-rule:nonzero} </style> </defs> <g id="图层_x0020_1"> <metadata id="CorelCorpID_0Corel-Layer"></metadata> <g id="_2879949025824"> <g> <path class="fil0" d="M197.24 165.02l-9.82 0 -5.54 8.98 9.82 0 5.55 -8.98zm25.48 23.64c-5.14,0.43 -14.24,5.03 -19.19,15.09 -4.95,10.06 -4.97,16.27 -4.97,16.27 0,0 2.61,-2.86 6.61,-5.86 4,-3 6.98,-4.06 6.98,-4.06 0,0 0.74,-3.69 2.59,-7.56 1.8,-3.76 4.65,-7.67 8.18,-8.56 7.16,-1.8 3.73,11.26 -1.53,19.78 -2.83,4.58 -12.85,17.73 -21.47,17.73 -8.63,0 -10.29,-8.32 -8.47,-16.1 1.82,-7.77 4.33,-17.65 16.92,-35.61 12.59,-17.95 26.21,-28.59 34.1,-33.07 8.1,-4.59 11.4,-2.58 11.4,-2.58 0,0 -10.34,6.37 -16.22,14.03 -5.62,7.32 -8.98,15.56 -6.37,19.6 2.49,3.85 11.25,3.92 20.89,-10.01 9.52,-13.75 7.12,-21.92 7.12,-21.92 0,0 1.15,-0.37 1.92,-0.48 4.64,-0.62 8.36,0.61 14.12,3.56 6.03,3.09 11.82,8.06 19.75,12.12 2.39,-2.62 5.05,-5.4 7.84,-8.11 -10.69,-5.2 -18.81,-12.62 -29.3,-13.34 -9.13,-0.62 -16.33,2.71 -16.33,2.71 0,0 -2.78,-3.79 -11.37,-2.55 -8.59,1.24 -35.05,12.3 -57.57,48.36 -20.36,32.6 -10.76,51.28 3.87,51.07 15.86,-0.23 30.95,-17.87 36.06,-32.42 5.11,-14.55 -0.93,-18.49 -5.57,-18.11l0 -0zm31.14 -30.29c-2.67,6.5 -6.59,11.04 -10.45,14.51 -4.95,4.45 -7.67,4.3 -8.85,3.41 -3.07,-2.34 1.05,-11.17 8.21,-19.06 7.13,-7.86 13.26,-10.31 13.26,-10.31 0,0.09 1.02,3.66 -2.17,11.45zm88.33 -9.48c-7.26,4.67 -17.32,8.9 -26.98,7.97 -2.44,2.54 -5.06,5.46 -7.69,8.65 16.76,3.31 31.43,-7.08 39.24,-15.93 4.87,-5.52 7.27,-10.44 7.27,-10.44 0,0 -4.65,5.13 -11.84,9.75l0 0z"></path> <path class="fil0" d="M334.27 189.86l-10.33 0 -1.68 2.59c0,0 -2.11,-3.8 -5.68,-3.74 -6.11,0.1 -12.23,4.77 -19.34,12.87 -5.21,5.93 -13.85,19.14 -13.85,19.14 0,0 -6.63,10.22 -9.98,9.41 -5.72,-1.37 4.8,-22.52 4.8,-22.52 0,0 5.53,-3.41 12.69,-9.44 4.51,-3.79 9.7,-9.01 14.47,-13.85 4.34,-4.4 9.45,-10.38 14.31,-16.92 -1.24,0.2 -2.52,0.33 -3.82,0.39 -4.36,5.75 -9.01,10.89 -12.96,14.98 -5.89,6.08 -11.31,11.06 -15.24,14.24 -3.77,3.04 -6.19,4.41 -6.19,4.41 0,0 7.2,-14.78 19.19,-31.1 11.99,-16.33 28.79,-31.49 27.47,-24.3 -0.38,2.07 -1.66,5.03 -3.6,8.55 1.36,-0.28 2.69,-0.64 3.97,-1.04 2.89,-5.96 3.87,-10.88 1.72,-12.3 -8.8,-5.8 -31.18,18.18 -42.4,32.11 -11.22,13.93 -21.37,35.21 -21.37,35.21 0,0 -1.76,0.74 -3.7,1.11 -1.22,0.23 -1.75,0.18 -1.95,0.1 -0.1,-0.04 -0.11,-0.11 -0.11,-0.11 0,0 9.87,-18.45 -0.24,-20.9 -9.75,-2.36 -26.65,15.68 -32.65,28.23 -4.12,8.61 -6.45,19.45 0.62,22.03 7.66,2.79 20.66,-11.18 23.72,-15.24 3.06,-4.06 6.87,-10.82 6.87,-10.82 0,0 1.87,-0.1 2.89,-0.25 1.95,-0.29 2.87,-0.53 2.87,-0.53 0,0 -1.27,3.32 -2.63,7.52 -2.55,7.84 -4.86,19.05 4.33,19.58 5.85,0.33 14.44,-10.24 14.44,-10.24 0,0 -2.31,9.4 5.29,10.24 5.61,0.62 13.77,-8.05 13.77,-8.05 0,0 -1.78,7.47 3.91,8.12 4.87,0.56 11.78,-5.14 17.45,-11.43 6.19,-6.86 10.93,-14.37 10.93,-14.37l-3.6 0c0,0 -7.96,12.09 -13.55,15.32 -4.59,2.66 -3.02,-1.6 -1.62,-3.83 1.54,-2.46 20.8,-35.18 20.8,-35.18l0 -0zm-78.7 22.76c-0.14,0.32 -2.73,4.82 -5.49,8.36 -2.98,3.81 -8.44,9.55 -11.71,8.34 -5.13,-1.9 0.52,-13.06 4.2,-18.48 3.69,-5.42 4.11,-5.78 4.21,-5.93 0.1,-0.14 0.21,-0.27 0.3,-0.1 0.09,0.17 1.26,2.39 3.58,4.33 2.33,1.94 4.57,2.96 4.75,3.03 0.18,0.06 0.31,0.14 0.17,0.46l0 0zm2.31 -4.02c-0.32,0.54 -0.56,0.57 -1.23,0.39 -1.18,-0.32 -6.09,-2.59 -6.05,-7.62 0.04,-4.9 6.94,-9.7 9.65,-7.65 2.53,1.91 1.32,6.8 0.37,9.3 -0.95,2.49 -2.53,5.22 -2.74,5.58zm46.93 12.12c-1.36,1.87 -2.5,3.56 -3.53,4.75 -2.2,2.54 -3.63,3.72 -4.91,4.03 -0.65,0.16 -1.44,0.12 -1.97,-0.2 -1.88,-1.14 -0.56,-5.59 2.71,-11.57 2.99,-5.46 6.44,-10.93 12.12,-17.23 5.7,-6.32 7.88,-6.62 9.48,-6.55 1.34,0.06 1.53,1.47 1.53,1.47 0,0 -0.1,0.33 -0.31,0.7 -1.88,3.26 -11.36,19.46 -15.11,24.6l0 0zm-152.37 7.91c-6.26,-3.87 -14.3,-6.35 -23.53,-6.44 -23.78,-0.21 -49.68,11.35 -67.21,11.5 -20.69,0.18 -21.72,-15.74 -20.18,-24.47 3.3,-18.83 16.66,-36.79 25.24,-46.26 8.59,-9.47 17.59,-16.82 25.07,-18.7 7.48,-1.88 6.78,3.81 5.86,4.59 -0.94,0.02 -2.76,0.22 -3.79,0.94 -1.61,1.11 -3.76,3.15 -3.9,6.37 -0.23,4.97 6.19,5.84 10.83,-4.57 3.17,-7.1 -1.85,-11.92 -6.03,-12.38 -5.72,-0.64 -14.47,1.35 -24.9,8.06 -18.17,11.67 -42.46,37.59 -43.08,66.35 -0.35,16.41 10.36,25.64 25.07,25.64 14.71,0 34.67,-9 54.17,-9.24 12.07,-0.1 19.88,4.13 23.84,11.02 0,0 3.93,-6.54 12.69,-6.89 8.66,-0.35 18.2,2.08 26.03,7.58 -2.61,-3.77 -9.99,-9.3 -16.17,-13.11l0 0z"></path> <path class="fil0" d="M98.27 164.01c-9.97,-2.54 -26.53,14.43 -33.5,28.24 -4.3,8.52 -6.19,19.23 1.47,22.01 7.66,2.79 20.66,-11.18 23.71,-15.24 3.06,-4.06 8.06,-12.2 8.06,-12.2 0,0 1.54,-0.3 2.54,-0.53 1.01,-0.23 2.63,-0.7 2.63,-0.7 0,0 -1.89,3.36 -3.59,6.8 -2.02,4.08 -7.5,17.67 3.08,21.75 10.11,3.89 24.5,-12.34 25.25,-12.65 0,0 -4.28,11.07 2.37,12.77 7.3,1.87 15.3,-7.49 15.3,-7.49 0,0 -1.68,7.02 4,7.68 10.19,1.18 28.21,-24.88 28.21,-24.88l-3.6 0c0,0 -9.17,11.8 -13.58,14.24 -4.41,2.44 -2.82,-1.89 -1.62,-3.83 1.53,-2.46 21.01,-35.01 21.01,-35.01l-10.33 0 -1.2 1.9c0,0 -2.13,-3.25 -5.69,-3.02 -10.35,0.68 -22.67,17.18 -28.09,24.45 -5.42,7.27 -17.1,21.16 -23.25,18.69 -6.7,-2.7 -0.04,-15.09 4.37,-22.36 4.8,-7.92 13.31,-15.76 16.67,-15.82 4.14,-0.08 2.51,3.68 2.51,3.68 0,0 -3.1,-0.39 -5.34,2.44 -1.59,2 -2.9,4.91 -1.39,6.5 2.44,2.56 5.61,-0.04 7.51,-2.94 5.91,-9.04 1.59,-13.81 -3.06,-14.51 -9.89,-1.48 -19,11.22 -25.92,15.94 -4.8,3.27 -6.81,3.02 -6.81,3.02 0,0 8.33,-16.35 -1.74,-18.92l-0 0zm44.76 29.25c2.99,-5.47 7.06,-10.74 12.36,-17.36 5.3,-6.62 7.94,-7.15 9.54,-7.08 1.34,0.06 1.53,1.47 1.53,1.47 0,0 -11.52,20.07 -15.69,25.79 -1.37,1.87 -2.53,3.45 -3.56,4.64 -2.2,2.54 -3.8,3.77 -5.03,4.07 -0.64,0.16 -1.44,0.12 -1.97,-0.2 -1.88,-1.14 -0.45,-5.36 2.82,-11.34l0 0zm-48.88 -6.51c-0.14,0.32 -3.43,5.76 -6.19,9.3 -2.98,3.81 -8.48,9.57 -11.76,8.36 -5.13,-1.9 0.34,-12.99 4.03,-18.4 3.69,-5.42 4.23,-6.11 4.33,-6.25 0.1,-0.14 0.2,-0.27 0.3,-0.1 0.09,0.17 1.26,2.58 3.8,4.2 2.54,1.63 5.15,2.37 5.33,2.44 0.18,0.06 0.31,0.14 0.17,0.46l-0 0zm4.29 -8.47c-0.95,2.5 -1.81,4.07 -1.98,4.44 -0.28,0.59 -0.99,0.4 -0.99,0.4 -0.81,-0.04 -7.08,-1.47 -7.04,-6.5 0.03,-4.9 6.94,-9.7 9.65,-7.65 2.53,1.91 1.32,6.8 0.37,9.3l0 0zm228.05 55.02c-0.6,-0.34 -1.27,-0.51 -2.01,-0.51 -0.74,0 -1.41,0.17 -2.01,0.51 -0.6,0.34 -1.08,0.8 -1.42,1.39 -0.34,0.59 -0.52,1.23 -0.52,1.92 0,0.69 0.17,1.34 0.52,1.93 0.34,0.58 0.82,1.05 1.42,1.39 0.6,0.34 1.27,0.51 2.01,0.51 0.74,0 1.41,-0.17 2.01,-0.51 0.6,-0.34 1.08,-0.8 1.42,-1.39 0.34,-0.58 0.52,-1.23 0.52,-1.93 0,-0.7 -0.17,-1.33 -0.52,-1.92 -0.34,-0.59 -0.82,-1.05 -1.42,-1.39zm0.71 4.9c-0.26,0.47 -0.63,0.83 -1.1,1.1 -0.47,0.27 -1.01,0.4 -1.62,0.4 -0.61,0 -1.15,-0.13 -1.62,-0.4 -0.47,-0.27 -0.84,-0.63 -1.1,-1.1 -0.26,-0.47 -0.39,-1 -0.39,-1.58 0,-0.59 0.13,-1.1 0.39,-1.57 0.26,-0.47 0.63,-0.83 1.11,-1.1 0.48,-0.27 1.02,-0.4 1.61,-0.4 0.6,0 1.14,0.13 1.61,0.4 0.48,0.27 0.85,0.63 1.11,1.1 0.26,0.47 0.39,0.99 0.39,1.57 0,0.58 -0.13,1.12 -0.39,1.58z"></path> <path class="fil0" d="M325.97 236.55c0.11,-0.18 0.17,-0.39 0.17,-0.61 0,-0.31 -0.1,-0.57 -0.3,-0.78 -0.2,-0.21 -0.47,-0.32 -0.8,-0.32l-2.01 0 0 3.46 0.88 0 0 -1.26 0.67 0 0.81 1.26 1.01 0 -0.91 -1.35c0.2,-0.09 0.36,-0.23 0.48,-0.42l0 0zm-0.84 -0.36c-0.07,0.06 -0.15,0.09 -0.27,0.09l-0.95 0 0 -0.67 0.95 0c0.11,0 0.2,0.03 0.27,0.09 0.07,0.06 0.1,0.14 0.1,0.24 0,0.1 -0.03,0.18 -0.1,0.24l0 0z"></path> </g> </g> <path class="fil1" d="M61.47 0l257.9 0c16.91,0 32.28,6.91 43.42,18.05 11.14,11.14 18.05,26.51 18.05,43.42l0 257.9c0,16.91 -6.91,32.28 -18.05,43.42 -11.14,11.14 -26.51,18.05 -43.42,18.05l-257.9 0c-16.91,0 -32.28,-6.91 -43.42,-18.05 -11.14,-11.14 -18.05,-26.51 -18.05,-43.42l0 -257.9c0,-16.91 6.91,-32.28 18.05,-43.42 11.14,-11.14 26.51,-18.05 43.42,-18.05zm257.9 7.47l-257.9 0c-14.85,0 -28.35,6.08 -38.13,15.87 -9.79,9.79 -15.87,23.29 -15.87,38.14l0 257.9c0,14.85 6.08,28.35 15.87,38.13 9.79,9.79 23.29,15.87 38.13,15.87l257.9 0c14.85,0 28.35,-6.08 38.14,-15.87 9.79,-9.79 15.87,-23.29 15.87,-38.13l0 -257.9c0,-14.85 -6.08,-28.35 -15.87,-38.14 -9.79,-9.79 -23.29,-15.87 -38.14,-15.87z"></path> </g> </svg> 