<?xml version="1.0" encoding="UTF-8"?> <svg xmlns="http://www.w3.org/2000/svg" xmlns:xlink="http://www.w3.org/1999/xlink" xmlns:xodm="http://www.corel.com/coreldraw/odm/2003" xml:space="preserve" width="25.5mm" height="25.5mm" version="1.1" style="shape-rendering:geometricPrecision; text-rendering:geometricPrecision; image-rendering:optimizeQuality; fill-rule:evenodd; clip-rule:evenodd" viewBox="0 0 652.65 652.65"> <defs> <style type="text/css"> .fil1 {fill:#406FB5;fill-rule:nonzero} .fil0 {fill:#D80613;fill-rule:nonzero} </style> </defs> <g id="图层_x0020_1"> <metadata id="CorelCorpID_0Corel-Layer"></metadata> <g id="_2876231065280"> <g> <path class="fil0" d="M154.68 288.88l-16.92 22.99 92.2 0c4.66,0 4.6,1.76 2.32,4.86 -2.31,3.14 -6.18,8.57 -8.55,11.77 -1.2,1.62 -3.36,4.56 3.8,4.56l37.71 0 11.17 -15.18c6.93,-9.41 0.6,-28.97 -24.17,-28.97l-97.57 -0.01z"></path> <path class="fil0" d="M130.92 363.77l33.98 -46.18 42.17 0c4.66,0 4.6,1.77 2.33,4.86l-8.6 11.72c-1.2,1.62 -3.36,4.56 3.8,4.56l56.48 0c-4.68,6.44 -19.94,25.04 -47.28,25.04l-82.88 0zm194.61 -25.06l-18.43 25.06 -48.61 0 18.43 -25.06 48.61 0zm74.46 -5.67l-118.88 0 32.51 -44.16 48.59 0 -18.63 25.32 21.68 0 18.65 -25.32 48.59 0 -32.51 44.16zm-4.17 5.67l-18.43 25.06 -48.59 0 18.43 -25.06 48.59 0zm-334.25 9.88l71.6 0 -3.91 5.31 -67.69 0 0 -5.31zm0 -9.88l78.88 0 -3.92 5.31 -74.96 0 0 -5.31zm0 19.77l64.33 0 -3.89 5.29 -60.44 0 0 -5.29zm529.52 -4.57l-71.34 0 3.92 -5.31 67.42 0 0 5.31zm0 9.86l-78.59 0 3.88 -5.29 74.7 0 0 5.29zm-60.16 -25.06l60.16 0 0 5.33 -64.06 0 3.91 -5.33zm-31.14 -49.83l-32.51 44.16 -51.5 0 32.53 -44.16 51.47 0zm-88.17 49.83c0,0 -3.55,4.86 -5.28,7.19 -6.09,8.25 -0.71,17.86 19.21,17.86l78.04 0 18.43 -25.04 -110.4 0z"></path> </g> </g> <path class="fil1" d="M105.34 0l441.96 0c28.97,0 55.31,11.85 74.4,30.94 19.09,19.09 30.94,45.43 30.94,74.4l0 441.96c0,28.97 -11.85,55.31 -30.94,74.4 -19.09,19.09 -45.43,30.94 -74.4,30.94l-441.96 0c-28.97,0 -55.32,-11.85 -74.4,-30.94 -19.09,-19.09 -30.94,-45.43 -30.94,-74.4l0 -441.96c0,-28.97 11.85,-55.32 30.94,-74.4 19.09,-19.09 45.43,-30.94 74.4,-30.94zm441.96 12.8l-441.96 0c-25.44,0 -48.58,10.42 -65.35,27.19 -16.77,16.77 -27.19,39.91 -27.19,65.35l0 441.96c0,25.44 10.42,48.58 27.19,65.35 16.77,16.77 39.91,27.19 65.35,27.19l441.96 0c25.44,0 48.58,-10.42 65.35,-27.19 16.77,-16.77 27.19,-39.91 27.19,-65.35l0 -441.96c0,-25.44 -10.42,-48.58 -27.19,-65.35 -16.77,-16.77 -39.91,-27.19 -65.35,-27.19z"></path> </g> </svg> 