<?xml version="1.0" encoding="UTF-8"?> <svg xmlns="http://www.w3.org/2000/svg" xmlns:xlink="http://www.w3.org/1999/xlink" xmlns:xodm="http://www.corel.com/coreldraw/odm/2003" xml:space="preserve" width="25.5mm" height="25.5mm" version="1.1" style="shape-rendering:geometricPrecision; text-rendering:geometricPrecision; image-rendering:optimizeQuality; fill-rule:evenodd; clip-rule:evenodd" viewBox="0 0 380.83 380.83"> <defs> <style type="text/css"> .fil6 {fill:#406FB5;fill-rule:nonzero} .fil5 {fill:url(#id0);fill-rule:nonzero} .fil2 {fill:url(#id1);fill-rule:nonzero} .fil4 {fill:url(#id2);fill-rule:nonzero} .fil1 {fill:url(#id3);fill-rule:nonzero} .fil0 {fill:url(#id4);fill-rule:nonzero} .fil3 {fill:url(#id5);fill-rule:nonzero} </style> <linearGradient id="id0" gradientUnits="userSpaceOnUse" x1="-5528.36" y1="-207.2" x2="-5528.36" y2="-178.73"> <stop offset="0" style="stop-opacity:1; stop-color:#FFC01A"></stop> <stop offset="0.501961" style="stop-opacity:1; stop-color:#FFBA03"></stop> <stop offset="1" style="stop-opacity:1; stop-color:#FFB300"></stop> </linearGradient> <linearGradient id="id1" gradientUnits="userSpaceOnUse" x1="-5499.19" y1="-207.21" x2="-5499.19" y2="-161.46"> <stop offset="0" style="stop-opacity:1; stop-color:#1A6FEF"></stop> <stop offset="0.25098" style="stop-opacity:1; stop-color:#1E72EF"></stop> <stop offset="0.501961" style="stop-opacity:1; stop-color:#166BEC"></stop> <stop offset="0.74902" style="stop-opacity:1; stop-color:#1267E9"></stop> <stop offset="1" style="stop-opacity:0.870588; stop-color:#1063E5"></stop> </linearGradient> <linearGradient id="id2" gradientUnits="userSpaceOnUse" x1="-5456.99" y1="-207.2" x2="-5456.99" y2="-178.73"> <stop offset="0" style="stop-opacity:1; stop-color:#DE5644"></stop> <stop offset="0.501961" style="stop-opacity:1; stop-color:#DA4531"></stop> <stop offset="1" style="stop-opacity:1; stop-color:#CE3A28"></stop> </linearGradient> <linearGradient id="id3" gradientUnits="userSpaceOnUse" x1="-5560.83" y1="-207.2" x2="-5560.83" y2="-178.73"> <stop offset="0" style="stop-opacity:1; stop-color:#DE5744"></stop> <stop offset="0.501961" style="stop-opacity:1; stop-color:#DB4632"></stop> <stop offset="1" style="stop-opacity:1; stop-color:#D13D29"></stop> </linearGradient> <linearGradient id="id4" gradientUnits="userSpaceOnUse" x1="-5600.01" y1="-222.24" x2="-5600.01" y2="-178.09"> <stop offset="0" style="stop-opacity:1; stop-color:#196EEF"></stop> <stop offset="0.501961" style="stop-opacity:1; stop-color:#186DEE"></stop> <stop offset="1" style="stop-opacity:1; stop-color:#1065E7"></stop> </linearGradient> <linearGradient id="id5" gradientUnits="userSpaceOnUse" x1="-5477.08" y1="-221.59" x2="-5477.08" y2="-179.69"> <stop offset="0" style="stop-opacity:1; stop-color:#0AA561"></stop> <stop offset="0.501961" style="stop-opacity:1; stop-color:#009B58"></stop> <stop offset="1" style="stop-opacity:1; stop-color:#00914B"></stop> </linearGradient> </defs> <g id="图层_x0020_1"> <metadata id="CorelCorpID_0Corel-Layer"></metadata> <g id="_2879593053536"> <g> <path class="fil0" d="M78.63 188.85l13.92 0 0 19.55c-4.34,1.4 -9.83,2.16 -15.53,2.16 -23.1,0 -36.68,-19.78 -36.68,-39.1 0,-18.95 12.28,-32.24 29.42,-32.24 10.84,0 17.15,3.67 22.8,8.79l0 6.38 10.58 -10.58c-6.69,-4.53 -16.39,-8.83 -30.24,-8.83 -30.41,0 -44.32,21.76 -44.32,39.64 0,25.45 18.54,40.79 41.84,40.79 11.3,0 21.33,-1.72 32.91,-4.95l0 -20.2c0,-1.03 0.45,-1.74 1.13,-2.36l3.65 -3.66 -24.83 0 -4.66 4.62 0 0z"></path> <path class="fil1" d="M140.99 162.29c-17.51,0 -28.35,12.79 -28.35,26.37 0,11.72 8.74,25.63 26.44,25.63 17.03,0 27.48,-12.82 27.48,-26.63 0,-12.87 -10.21,-25.37 -25.57,-25.37l0 -0.01 0 0zm-2.9 3.73c12.34,0 17.84,16.08 17.84,27.55 0,17.06 -12.79,17.39 -14.33,17.39 -5.85,0 -9.95,-3.54 -13.01,-8.18 -2.7,-4.28 -5.33,-12.23 -5.33,-19.99 0,-7.73 2.53,-11.51 6.52,-14.29 3.26,-2.08 6.31,-2.48 8.31,-2.48l0 0z"></path> <path class="fil2" d="M255.42 162.28c-15.29,0 -23.56,9.68 -23.56,20.49 0,8.23 5.89,17.51 18.05,17.51l3.08 0c0,0 -0.84,2.04 -0.84,4 0,2.9 1.04,4.53 3.25,7.03 -20.92,1.28 -29.33,9.72 -29.33,18.79 0,7.94 7.61,15.76 23.59,15.76 18.92,0 28.72,-10.51 28.72,-20.82 0,-7.27 -3.62,-11.25 -12.79,-18.12 -2.7,-2.1 -3.22,-3.43 -3.22,-5 0,-2.25 1.34,-3.73 1.84,-4.3 0.87,-0.92 2.37,-1.96 2.93,-2.46 3.08,-2.61 7.43,-6.47 7.43,-14.18 0,-5.29 -2.2,-9.84 -7.21,-14.1l6.12 0 4.6 -4.6 -22.66 0 0 0zm-4.22 3.44c2.77,0 5.09,0.98 7.54,3.02 2.71,2.45 7.05,9.02 7.05,17.15 0,8.78 -6.82,11.18 -10.51,11.18 -1.81,0 -3.97,-0.5 -5.8,-1.76 -4.07,-2.64 -8.11,-9.67 -8.11,-18.03 0,-7.54 4.49,-11.56 9.84,-11.56l0 0zm6.05 48.93c1.17,0 2.01,0.1 2.01,0.1 0,0 2.75,1.97 4.68,3.43 4.48,3.54 7.27,6.24 7.27,11.06 0,6.63 -6.14,11.82 -16.1,11.82 -10.92,0 -19.27,-5.09 -19.27,-13.39 0,-6.88 5.72,-12.8 21.42,-13.02l0 0z"></path> <path class="fil3" d="M281.39 212.77l20.99 0 3.2 -3.2 -6.02 -0.75c-1.62,-0.2 -2.58,-1.6 -2.58,-2.96l0 -63.4c0,-1.25 0.58,-1.89 1,-2.3l3.79 -3.79 -17.9 0 -4.66 4.66 6.96 0 0 65.67c0,0.93 -0.29,1.57 -0.92,2.22l-3.85 3.83z"></path> <path class="fil4" d="M330.82 162.29c-11.72,0 -24.17,8.93 -24.17,24.97 0,13.25 8.93,27.03 25.62,27.03 4.16,0 7.59,-0.53 10.8,-2.01 3.44,-1.59 6.76,-4.16 9.18,-7.4 -4.57,2.3 -8.29,3.82 -13.24,3.82 -9.4,0 -18.47,-6.78 -21.64,-19.26l33.22 -13.43c-1.92,-6.84 -7.33,-13.73 -19.76,-13.73l-0 0zm-2.17 3.67c6.29,0 10.83,5.17 10.83,9.22 0,1.31 -0.82,2 -2.45,2.64l-20.42 8.26c0,0 -0.55,-2.57 -0.55,-5.35 0,-11.66 8.43,-14.77 12.58,-14.77l0 0z"></path> <path class="fil5" d="M200.39 162.29c-17.51,0 -28.35,12.79 -28.35,26.37 0,11.72 8.74,25.63 26.44,25.63 17.03,0 27.48,-12.82 27.48,-26.63 0,-12.87 -10.21,-25.37 -25.57,-25.37l0 -0.01 0 0zm-2.9 3.73c12.34,0 17.84,16.08 17.84,27.55 0,17.06 -12.8,17.39 -14.33,17.39 -5.86,0 -9.95,-3.54 -13.01,-8.18 -2.7,-4.28 -5.33,-12.23 -5.33,-19.99 0,-7.73 2.53,-11.51 6.52,-14.29 3.26,-2.08 6.31,-2.48 8.31,-2.48l0 0z"></path> </g> </g> <path class="fil6" d="M61.47 0l257.9 0c16.91,0 32.28,6.91 43.42,18.05 11.14,11.14 18.05,26.51 18.05,43.42l0 257.9c0,16.91 -6.91,32.28 -18.05,43.42 -11.14,11.14 -26.51,18.05 -43.42,18.05l-257.9 0c-16.91,0 -32.28,-6.91 -43.42,-18.05 -11.14,-11.14 -18.05,-26.51 -18.05,-43.42l0 -257.9c0,-16.91 6.91,-32.28 18.05,-43.42 11.14,-11.14 26.51,-18.05 43.42,-18.05zm257.9 7.47l-257.9 0c-14.85,0 -28.35,6.08 -38.13,15.87 -9.79,9.79 -15.87,23.29 -15.87,38.14l0 257.9c0,14.85 6.08,28.35 15.87,38.13 9.79,9.79 23.29,15.87 38.13,15.87l257.9 0c14.85,0 28.35,-6.08 38.14,-15.87 9.79,-9.79 15.87,-23.29 15.87,-38.13l0 -257.9c0,-14.85 -6.08,-28.35 -15.87,-38.14 -9.79,-9.79 -23.29,-15.87 -38.14,-15.87z"></path> </g> </svg> 