<?xml version="1.0" encoding="UTF-8"?> <svg xmlns="http://www.w3.org/2000/svg" xmlns:xlink="http://www.w3.org/1999/xlink" xmlns:xodm="http://www.corel.com/coreldraw/odm/2003" xml:space="preserve" width="25.5mm" height="25.5mm" version="1.1" style="shape-rendering:geometricPrecision; text-rendering:geometricPrecision; image-rendering:optimizeQuality; fill-rule:evenodd; clip-rule:evenodd" viewBox="0 0 2279.84 2279.84"> <defs> <style type="text/css"> .fil1 {fill:#406FB5;fill-rule:nonzero} .fil0 {fill:#00ABA5;fill-rule:nonzero} </style> </defs> <g id="图层_x0020_1"> <metadata id="CorelCorpID_0Corel-Layer"></metadata> <g> <path class="fil0" d="M935.44 1122.65c0,0 -49.19,-9.52 -92.03,-11.11 -42.84,-1.58 -49.18,12.7 -31.74,19.05 17.46,6.35 90.44,39.67 103.14,47.6 12.7,7.93 37.42,28.36 28.76,56.52 -5.35,20.43 -25.38,41.26 -88.53,45.55 -58.18,5.28 -148.09,-7.4 -148.09,-7.4l4.23 -46.02c0,0 61.36,11.1 101.02,11.1 39.67,0 46.02,-13.22 26.97,-21.15 -19.04,-7.94 -71.93,-26.97 -96.79,-40.73 -24.86,-13.75 -32.27,-34.9 -30.68,-50.25 1.19,-17.46 16.26,-48.8 75.64,-53.96 55.01,-4.23 82.77,-1.85 154.18,7.14l-3.96 43.11 -2.11 0.54zm818.76 0c0,0 -49.18,-9.52 -92.02,-11.11 -42.84,-1.58 -49.19,12.7 -31.74,19.05 17.46,6.35 90.44,39.67 103.14,47.6 12.69,7.93 37.42,28.36 28.76,56.52 -5.36,20.43 -25.38,41.26 -88.53,45.55 -58.18,5.28 -148.09,-7.4 -148.09,-7.4l4.23 -46.02c0,0 61.36,11.1 101.02,11.1 39.67,0 46.02,-13.22 26.97,-21.15 -19.04,-7.94 -71.94,-26.97 -96.8,-40.73 -24.85,-13.75 -32.27,-34.9 -30.67,-50.25 1.19,-17.46 16.25,-48.8 75.64,-53.96 55,-4.23 82.77,-1.85 154.18,7.14l-3.96 43.11 -2.12 0.54zm-550.07 -16.93c-35.97,-33.85 -66.65,-35.88 -99.45,-35.88 -32.79,0 -139.63,11.55 -139.63,116.27 0,100.76 141.15,96.6 141.15,96.6 0,0 45.82,1.78 104.26,-10.92l5.28 -43.37c0,0 -33.85,12.7 -90.97,10.59 -57.12,-2.12 -69.82,-20.11 -77.23,-46.54l177.72 0c0.01,0 14.81,-52.89 -21.14,-86.75zm-151.41 47.08c0,-11.1 9.16,-41.36 55.17,-41.36 46.02,0 46.9,41.36 46.9,41.36l-102.07 0zm968.58 -47.08c-35.97,-33.85 -66.64,-35.88 -99.44,-35.88 -32.79,0 -139.64,11.55 -139.64,116.27 0,100.76 141.16,96.6 141.16,96.6 0,0 45.81,1.78 104.26,-10.92l5.28 -43.37c0,0 -33.85,12.7 -90.97,10.59 -57.12,-2.12 -69.82,-20.11 -77.22,-46.54l177.71 0c0.01,0 14.81,-52.89 -21.14,-86.75zm-151.4 47.08c0,-11.1 9.16,-41.36 55.17,-41.36 46.02,0 46.91,41.36 46.91,41.36l-102.08 0zm-609.98 -72.99l-10.32 201.74 82.51 0 9.52 -161.02c0,0 8.33,-5.54 40.46,-5.54 32.13,0 38.08,11.24 38.47,17.19 0.4,5.95 -9.52,149.38 -9.52,149.38l82.91 0c0,0 12.61,-136.66 6.26,-170.41 -6.35,-33.75 -53.86,-38.28 -61.27,-38.74 -21.14,-1.32 -100.21,-5.3 -179.03,7.39l0 0zm-664.06 -9.04l87.66 0 -15.47 210.78 -88.06 0 15.87 -210.78zm5.55 -72.68l-4.04 52.46 88.04 0 3.01 -41.89c0,0 -1.32,-11.63 -16.39,-11.63 -15.07,0 -70.62,1.05 -70.62,1.05l0 0zm-58.45 -1.05c-15.06,0 -70.6,1.05 -70.6,1.05l-4.04 52.46 -3.33 44.33 -128.55 0 3.33 -44.33 3.01 -41.89c0,0 -1.32,-11.63 -16.39,-11.63 -15.07,0 -70.61,1.05 -70.61,1.05l-4.04 52.46 -17.38 231 88.06 0 9.46 -125.85 128.54 0 -9.47 125.85 88.06 0 17.35 -231 3.01 -41.89c0,0 -1.32,-11.63 -16.41,-11.63l0 0z"></path> </g> <path class="fil1" d="M367.97 0l1543.88 0c101.22,0 193.23,41.39 259.91,108.07 66.68,66.68 108.07,158.69 108.07,259.91l0 1543.88c0,101.22 -41.39,193.22 -108.07,259.9 -66.68,66.68 -158.69,108.07 -259.91,108.07l-1543.88 0c-101.22,0 -193.22,-41.39 -259.9,-108.07 -66.68,-66.68 -108.07,-158.69 -108.07,-259.9l0 -1543.88c0,-101.22 41.39,-193.23 108.07,-259.91 66.68,-66.68 158.69,-108.07 259.9,-108.07zm1543.88 44.7l-1543.88 0c-88.87,0 -169.69,36.39 -228.29,94.98 -58.6,58.6 -94.98,139.43 -94.98,228.3l0 1543.88c0,88.87 36.39,169.69 94.98,228.29 58.6,58.6 139.42,94.98 228.29,94.98l1543.88 0c88.87,0 169.7,-36.39 228.3,-94.98 58.6,-58.6 94.98,-139.42 94.98,-228.29l0 -1543.88c0,-88.87 -36.39,-169.7 -94.98,-228.3 -58.6,-58.6 -139.43,-94.98 -228.3,-94.98z"></path> </g> </svg> 