<?xml version="1.0" encoding="UTF-8"?> <svg xmlns="http://www.w3.org/2000/svg" xmlns:xlink="http://www.w3.org/1999/xlink" xmlns:xodm="http://www.corel.com/coreldraw/odm/2003" xml:space="preserve" width="25.5mm" height="25.5mm" version="1.1" style="shape-rendering:geometricPrecision; text-rendering:geometricPrecision; image-rendering:optimizeQuality; fill-rule:evenodd; clip-rule:evenodd" viewBox="0 0 380.83 380.83"> <defs> <style type="text/css"> .fil0 {fill:#406FB5;fill-rule:nonzero} .fil1 {fill:#24272A;fill-rule:nonzero} .fil2 {fill:#CE0E2D;fill-rule:nonzero} </style> </defs> <g id="图层_x0020_1"> <metadata id="CorelCorpID_0Corel-Layer"></metadata> <path class="fil0" d="M61.47 0l257.9 0c16.91,0 32.28,6.91 43.42,18.05 11.14,11.14 18.05,26.51 18.05,43.42l0 257.9c0,16.91 -6.91,32.28 -18.05,43.42 -11.14,11.14 -26.51,18.05 -43.42,18.05l-257.9 0c-16.91,0 -32.28,-6.91 -43.42,-18.05 -11.14,-11.14 -18.05,-26.51 -18.05,-43.42l0 -257.9c0,-16.91 6.91,-32.28 18.05,-43.42 11.14,-11.14 26.51,-18.05 43.42,-18.05zm257.9 7.47l-257.9 0c-14.85,0 -28.35,6.08 -38.13,15.87 -9.79,9.79 -15.87,23.29 -15.87,38.14l0 257.9c0,14.85 6.08,28.35 15.87,38.13 9.79,9.79 23.29,15.87 38.13,15.87l257.9 0c14.85,0 28.35,-6.08 38.14,-15.87 9.79,-9.79 15.87,-23.29 15.87,-38.13l0 -257.9c0,-14.85 -6.08,-28.35 -15.87,-38.14 -9.79,-9.79 -23.29,-15.87 -38.14,-15.87z"></path> <g id="_2879948872384"> <path class="fil1" d="M136.03 271.86l9.46 0 0 26.31c0,13.36 -7.36,21.02 -20.18,21.02 -12.69,0 -19.98,-7.53 -19.98,-20.65l0 -26.65 9.46 0 0 26.35c0,7.79 3.83,11.96 10.66,11.96 6.83,0 10.59,-4.06 10.59,-11.62l0 -26.71zm-53.29 18.78l-21.38 0 0 -18.78 -9.46 0 0 46.63 9.46 0 0 -18.95 21.35 0 0 18.95 9.46 0 0 -46.63 -9.46 0 0 18.78 0.03 0zm236.88 -18.78l0 46.56 9.33 0 0 -46.56 -9.33 0zm-37.14 26.54l17.22 0 0 -8.49 -17.22 0 0 -9.56 24.98 0 0 -8.46 -34.31 0 0 46.56 35.21 0 0 -8.49 -25.88 0 0 -11.56zm-37.1 5.5l-10.59 -32.07 -7.73 0 -10.59 32.07 -10.29 -32.04 -10.06 0 16.25 46.6 7.83 0 10.59 -30.61 10.59 30.61 7.89 0 16.22 -46.6 -9.83 0 -10.29 32.04zm-66.08 -31.78l20.35 46.33 -9.93 0 -4.2 -9.69 -21.35 0 -0.3 0.67 -3.93 9.03 -9.66 0 20.55 -46.6 8.26 0 0.2 0.27zm2.26 27.11l-6.73 -15.62 -6.69 15.62 -0.47 1.07 14.32 0 -0.43 -1.07z"></path> <g> <path class="fil2" d="M173.43 205.65c0.27,-0.2 0.33,-0.6 0.2,-0.93 -18.22,-39.28 -41.24,-76.53 -68.07,-110.52 -26.83,-33.98 -21.39,20.33 -19.86,40.72 0.71,9.48 5.18,18.3 12.41,24.5 18.67,18.2 63.83,41.18 74.33,46.43 0.33,0.13 0.73,0.07 1,-0.2l0 -0zm-6.97 15.54c-0.13,-0.4 -0.53,-0.66 -1,-0.66l-75.19 2.59c8.17,14.55 21.92,25.84 36.2,22.38 9.9,-2.46 32.22,-18.07 39.59,-23.38 0.6,-0.47 0.4,-0.86 0.4,-0.93l0 0zm1.13 -6.71c0.4,-0.6 -0.27,-1.13 -0.27,-1.13 -33.01,-22.32 -97.05,-56.59 -97.05,-56.59 -1.45,4.45 -2.2,9.12 -2.2,13.8 0,23.73 18.62,43.29 42.32,44.45 1.13,0.2 44.7,0 56.39,-0.07 0.33,-0.07 0.6,-0.2 0.8,-0.47l0 0zm4.98 -152.78c-3.25,0.27 -12.09,2.33 -12.09,2.33 -19.93,5.12 -24.64,23.25 -24.64,23.25 -3.65,11.36 0.07,23.91 0.07,23.91 6.64,29.49 39.32,78.05 46.36,88.21 0.46,0.53 0.86,0.33 0.86,0.33 0.4,-0.13 0.73,-0.47 0.73,-0.93 10.89,-108.4 -11.29,-137.1 -11.29,-137.1l0 0zm24.91 137.9c0.4,0.13 0.86,0 1.06,-0.4 7.24,-10.43 39.72,-58.72 46.36,-88.08 0,0 3.59,-14.21 0.13,-23.91 0,0 -4.92,-18.4 -24.84,-23.25 0,0 -5.71,-1.46 -11.82,-2.33 0,0 -22.32,28.7 -11.43,137.1 -0.07,0.4 0.2,0.73 0.53,0.86l0 0zm17.8 20.99c-0.36,0.07 -0.67,0.29 -0.86,0.6 -0.07,0.4 0,0.73 0.27,1 7.17,5.18 29.03,20.46 39.52,23.38 0,0 19.46,6.64 36.33,-22.39l-75.26 -2.59zm95.32 -63.97c0,0 -63.9,34.34 -96.98,56.66 -0.33,0.27 -0.53,0.66 -0.4,1.06 0,0 0.33,0.6 0.8,0.6 11.82,0 56.59,0.07 57.79,-0.13 4.45,-0.33 8.83,-1.33 12.95,-2.99 0,0 15.94,-5.05 24.18,-23.18 0,0 7.37,-14.75 1.66,-32.02l0 0zm-103.02 49.02c0.27,0.2 0.66,0.27 1,0.07 10.76,-5.38 55.6,-28.16 74.13,-46.3 0,0 11.76,-9.43 12.36,-24.64 1.33,-21.06 -19.86,-40.58 -19.86,-40.58 0,0 -39.19,47.49 -67.95,110.26 -0.02,0.09 -0.03,0.19 -0.03,0.28 0,0.34 0.13,0.67 0.36,0.91l0 0zm0 0l0 0 0 0z"></path> </g> </g> </g> </svg> 