<?xml version="1.0" encoding="UTF-8"?> <svg xmlns="http://www.w3.org/2000/svg" xmlns:xlink="http://www.w3.org/1999/xlink" xmlns:xodm="http://www.corel.com/coreldraw/odm/2003" xml:space="preserve" width="25.5mm" height="25.5mm" version="1.1" style="shape-rendering:geometricPrecision; text-rendering:geometricPrecision; image-rendering:optimizeQuality; fill-rule:evenodd; clip-rule:evenodd" viewBox="0 0 1526.8 1526.8"> <defs> <style type="text/css"> .fil1 {fill:#406FB5;fill-rule:nonzero} .fil0 {fill:#009B4C;fill-rule:nonzero} </style> </defs> <g id="图层_x0020_1"> <metadata id="CorelCorpID_0Corel-Layer"></metadata> <g id="_2880006151584"> <path class="fil0" d="M731.8 1089.9c-249.93,23.06 -510.44,-13.26 -546.93,-208.59 -17.85,-96.29 26.08,-198.39 84.27,-261.86l0 -33.89c-104.82,91.93 -161.63,208.26 -128.91,345.67 41.8,176.25 265.32,276.05 606.58,242.91 135.08,-13.09 311.74,-56.52 434.64,-124.03l0 -95.82c-111.54,66.45 -295.98,121.35 -449.64,135.61l0 0zm658.41 -506.62c-59.28,-289.44 -621.27,-307.79 -983.54,-87.27l0 24.36c361.85,-186.03 875.12,-184.9 921.85,81.73 15.68,88.2 -34,180.08 -122.77,233l0 69.18c106.77,-39.16 216.29,-165.83 184.45,-320.99l0 0z"></path> <g> <path class="fil0" d="M1161.23 541.13l-65.53 0 0 291.86c0,34.21 16.54,63.95 65.53,68.71l0 -360.56zm-780.29 106.56l-65.65 0 -0.04 190.69c0,34.33 16.59,64.04 65.68,68.7l0 -259.39zm-65.65 -97.69l65.44 0 0 62.12 -65.44 0 0 -62.12zm458.11 354.06c-53.04,0 -75.49,-36.87 -75.49,-73.18l0 -253.18 64.96 0 0 69.99 48.92 0 0 52.47 -48.92 0 0 126.7c0,14.81 7.03,23.06 22.47,23.06l26.45 0 0 54.14 -38.4 0 0.01 0zm119.53 -107.87c0,33.25 20.79,57.68 57.57,57.68 28.82,0 43.03,-8 59.67,-24.43l40.14 38.24c-25.73,25.42 -52.7,40.88 -100.28,40.88 -62.17,0 -121.73,-33.93 -121.73,-132.84 0,-84.57 52.04,-132.36 120.29,-132.36 69.37,0 109.24,55.96 109.24,129.41l0 23.44 -164.89 0 0 -0.01zm52.8 -99.12c-22.24,0 -39.32,11.45 -46.56,26.9 -4.22,9.29 -5.76,16.52 -6.24,27.93l100.12 0c-1.26,-27.93 -13.93,-54.83 -47.31,-54.83zm-388.36 3.09c19.05,0 26.97,9.42 26.97,24.7l0 179.58 64.98 0 0 -179.95c0,-36.46 -19.43,-76.72 -76.48,-76.72l-134.22 -0.07 0 256.75 65 0 0 -204.27 53.76 0zm674.36 -106.88c-14.45,0 -25.98,-11.65 -25.98,-26.08 0,-14.36 11.53,-26.07 25.98,-26.07 14.37,0 26.18,11.71 26.18,26.07 0,14.43 -11.81,26.08 -26.18,26.08zm0 -47.8c-11.91,0 -21.48,9.84 -21.48,21.72 0,11.96 9.57,21.63 21.48,21.63 11.9,0 21.78,-9.67 21.78,-21.63 0,-11.89 -9.88,-21.72 -21.78,-21.72zm11.56 37.36l-4.87 0c-0.43,-0.01 -0.81,-0.26 -0.99,-0.65l-6.59 -11.2c-0.21,-0.24 -0.76,-0.51 -0.93,-0.51l-3.02 0 0 11.17c0,0.55 -0.38,1.2 -1.1,1.2l-4.39 0c-0.65,0 -1.1,-0.65 -1.1,-1.2l0 -28.17c0,-1.65 0.54,-2.32 1.99,-2.53 1.58,-0.17 5.69,-0.38 8,-0.38 8.13,0 12.9,2.39 12.9,9.93l0 0.55c0,4.66 -2.3,7.2 -5.87,8.33l6.86 11.68c0.11,0.26 0.17,0.54 0.17,0.83 -0.01,0.44 -0.25,0.96 -1.08,0.96zm-5.41 -24.13c0,-3.14 -1.96,-4.14 -6.14,-4.14l-4.15 0 0 8.94c0.65,0 3.6,0.14 4.15,0.14 4.19,0 6.14,-1.4 6.14,-4.38l0 -0.55 0 0z"></path> </g> </g> <path class="fil1" d="M246.43 0l1033.93 0c67.78,0 129.41,27.72 174.06,72.38 44.65,44.65 72.38,106.28 72.38,174.06l0 1033.93c0,67.78 -27.72,129.41 -72.38,174.06 -44.65,44.65 -106.28,72.38 -174.06,72.38l-1033.93 0c-67.78,0 -129.4,-27.72 -174.06,-72.38 -44.65,-44.65 -72.38,-106.27 -72.38,-174.06l0 -1033.93c0,-67.78 27.72,-129.41 72.38,-174.06 44.65,-44.65 106.27,-72.38 174.06,-72.38zm1033.93 29.94l-1033.93 0c-59.52,0 -113.64,24.37 -152.88,63.61 -39.24,39.24 -63.61,93.37 -63.61,152.89l0 1033.93c0,59.52 24.37,113.64 63.61,152.88 39.24,39.24 93.37,63.61 152.88,63.61l1033.93 0c59.52,0 113.65,-24.37 152.89,-63.61 39.24,-39.24 63.61,-93.37 63.61,-152.88l0 -1033.93c0,-59.52 -24.37,-113.65 -63.61,-152.89 -39.24,-39.24 -93.37,-63.61 -152.89,-63.61z"></path> </g> </svg> 