<?xml version="1.0" encoding="UTF-8"?> <svg xmlns="http://www.w3.org/2000/svg" xmlns:xlink="http://www.w3.org/1999/xlink" xmlns:xodm="http://www.corel.com/coreldraw/odm/2003" xml:space="preserve" width="25.5mm" height="25.5mm" version="1.1" style="shape-rendering:geometricPrecision; text-rendering:geometricPrecision; image-rendering:optimizeQuality; fill-rule:evenodd; clip-rule:evenodd" viewBox="0 0 652.65 652.65"> <defs> <style type="text/css"> .fil0 {fill:#406FB5;fill-rule:nonzero} .fil1 {fill:#E60012;fill-rule:nonzero} </style> </defs> <g id="图层_x0020_1"> <metadata id="CorelCorpID_0Corel-Layer"></metadata> <path class="fil0" d="M105.34 0l441.96 0c28.97,0 55.31,11.85 74.4,30.94 19.09,19.09 30.94,45.43 30.94,74.4l0 441.96c0,28.97 -11.85,55.32 -30.94,74.4 -19.09,19.09 -45.43,30.94 -74.4,30.94l-441.96 0c-28.97,0 -55.32,-11.85 -74.4,-30.94 -19.09,-19.09 -30.94,-45.43 -30.94,-74.4l0 -441.96c0,-28.97 11.85,-55.32 30.94,-74.4 19.09,-19.09 45.43,-30.94 74.4,-30.94zm441.96 12.8l-441.96 0c-25.44,0 -48.58,10.42 -65.35,27.19 -16.77,16.77 -27.19,39.91 -27.19,65.35l0 441.96c0,25.44 10.42,48.58 27.19,65.35 16.77,16.77 39.91,27.19 65.35,27.19l441.96 0c25.44,0 48.58,-10.42 65.35,-27.19 16.77,-16.77 27.19,-39.91 27.19,-65.35l0 -441.96c0,-25.44 -10.42,-48.58 -27.19,-65.35 -16.77,-16.77 -39.91,-27.19 -65.35,-27.19z"></path> <g> <path class="fil1" d="M279.88 292.48c-10.37,0 -22.16,4.81 -29.37,14.43l0.01 -0.02 -0.01 0.01 0.01 -12.9 -24.73 0 0 90.06 24.73 0 0 -51.25c0,-9.22 7.15,-19.03 20.39,-19.03 10.23,0 20.82,7.12 20.82,19.03l0 51.25 24.73 0 0 -55.83c0,-20.71 -14.82,-35.74 -36.58,-35.74l0 0zm212.35 1.52l-22.36 61.35 -22.36 -61.35 -28.25 0 37.05 90.03 27.1 0 37.05 -90.03 -28.25 0zm-340.27 27.13c4.21,-5.66 10.92,-8.98 19.02,-8.98 8.91,0 15.67,5.09 19.17,12.6l-43.21 17.93c-1.18,-9.2 1.17,-16.4 5.02,-21.55l0 0zm47.51 35.24c-10.41,7.7 -16.36,9.54 -25.85,9.54 -8.54,0 -15.23,-2.65 -19.95,-7.3l63.22 -26.23c-1.38,-9.77 -5.09,-18.5 -10.8,-25.15 -8.31,-9.65 -20.6,-14.75 -35.57,-14.75 -27.19,0 -47.7,20.06 -47.7,46.56 0,27.19 20.55,46.55 50.43,46.55 16.74,0 33.85,-7.93 41.85,-17.2l-15.64 -12.02zm-79 4.98l-56.21 0 0 -94.29 -25.07 0 0 117 81.28 0 0 -22.71zm444.41 -47.68c-13.81,0 -23.84,10.47 -23.84,25.36 0,14.21 10.62,25.36 24.17,25.36 13.82,0 23.84,-10.75 23.84,-25.36 0,-14.22 -10.62,-25.36 -24.17,-25.36l0 0zm0 71.9c-27.05,0 -48.24,-20.15 -48.24,-46.55 0,-26.1 21.34,-46.55 48.57,-46.55 27.05,0 48.23,20.15 48.23,46.55 0,26.1 -21.34,46.55 -48.57,46.55l0 0zm-190.41 -71.9c-13.81,0 -23.84,10.47 -23.84,25.36 0,14.21 10.62,25.36 24.17,25.36 13.81,0 23.84,-10.75 23.84,-25.36 0,-14.22 -10.62,-25.36 -24.17,-25.36l0 0zm0 71.9c-27.05,0 -48.23,-20.15 -48.23,-46.55 0,-26.1 21.33,-46.55 48.57,-46.55 27.04,0 48.23,20.15 48.23,46.55 0,26.1 -21.34,46.55 -48.57,46.55l0 0zm0 0l0 0 0 0z"></path> </g> </g> </svg> 