<?xml version="1.0" encoding="UTF-8"?> <svg xmlns="http://www.w3.org/2000/svg" xmlns:xlink="http://www.w3.org/1999/xlink" xmlns:xodm="http://www.corel.com/coreldraw/odm/2003" xml:space="preserve" width="25.5mm" height="25.5mm" version="1.1" style="shape-rendering:geometricPrecision; text-rendering:geometricPrecision; image-rendering:optimizeQuality; fill-rule:evenodd; clip-rule:evenodd" viewBox="0 0 1526.8 1526.8"> <defs> <style type="text/css"> .fil1 {fill:#C23C40} .fil2 {fill:#E8AE30} .fil3 {fill:white} .fil0 {fill:#406FB5;fill-rule:nonzero} </style> </defs> <g id="图层_x0020_1"> <metadata id="CorelCorpID_0Corel-Layer"></metadata> <path class="fil0" d="M246.43 0l1033.93 0c67.78,0 129.41,27.72 174.06,72.38 44.65,44.65 72.38,106.28 72.38,174.06l0 1033.93c0,67.78 -27.72,129.41 -72.38,174.06 -44.65,44.65 -106.28,72.38 -174.06,72.38l-1033.93 0c-67.78,0 -129.4,-27.72 -174.06,-72.38 -44.65,-44.65 -72.38,-106.27 -72.38,-174.06l0 -1033.93c0,-67.78 27.72,-129.41 72.38,-174.06 44.65,-44.65 106.27,-72.38 174.06,-72.38zm1033.93 29.94l-1033.93 0c-59.52,0 -113.64,24.37 -152.88,63.61 -39.24,39.24 -63.61,93.37 -63.61,152.89l0 1033.93c0,59.52 24.37,113.65 63.61,152.88 39.24,39.24 93.37,63.61 152.88,63.61l1033.93 0c59.52,0 113.65,-24.37 152.89,-63.61 39.24,-39.24 63.61,-93.37 63.61,-152.88l0 -1033.93c0,-59.52 -24.37,-113.65 -63.61,-152.89 -39.24,-39.24 -93.37,-63.61 -152.89,-63.61z"></path> <g id="_2876242229136"> <path class="fil1" d="M156.01 251.44c-37.69,0 -68.25,30.56 -68.25,68.25 0,0 0,0.01 0,0.01l0 887.42c0,37.69 30.56,68.26 68.25,68.26l1214.78 0c37.69,-0.01 68.25,-30.57 68.25,-68.26l0 -887.43c0,-37.69 -30.56,-68.26 -68.25,-68.26l-1214.78 0 0 0.01 0 0z"></path> <path class="fil2" d="M659.15 713.45c18.39,-135.96 79,-381.17 194.6,-381.17 134.95,0 293.51,453.32 293.48,828.63l-124.47 0c0,-393.63 -96.41,-748.32 -165.79,-748.33 -72.36,-0.02 -135.79,241.26 -135.79,700.92l-124.28 0c0,-459.66 -63.04,-700.92 -135.79,-700.92 -69.24,0 -165.6,354.76 -165.6,748.33l-124.46 0c0.12,-375.64 158.28,-828.68 293.48,-828.62 115.44,0.04 176.07,245.17 194.61,381.17l0 0z"></path> <polygon class="fil1" points="577.81,1010.08 577.81,865.22 1151.06,865.22 1151.06,1010.08 "></polygon> <path class="fil3" d="M1093.23 876.87l36.07 0 0 118.67 -36.07 0 0 -118.67zm168.74 0l24.55 0 -8.33 32.34 -17.85 0 1.63 -32.34 0 0zm66.89 17.58c24,0 46.54,6.06 46.65,29.62l-34.27 0c0,-8.12 -4.73,-11.81 -12.74,-11.81 -4.73,0 -11.15,1.97 -11.14,9.41 0,12.33 19.51,9.87 36.09,14.8 14.88,4.41 25.21,13.29 25.21,27.63 0,21.97 -17.24,34.12 -49.82,34.25 -34.15,0.14 -46.99,-12.17 -47.11,-34.25l34.72 0c0,8.34 5.18,13.29 12.5,13.29 8.77,0 12.73,-3.33 12.73,-9.51 0,-12.9 -23.92,-12.57 -38.02,-17.18 -9.6,-3.14 -18.32,-10.25 -18.32,-25.36 0.01,-12.62 9.48,-30.88 43.51,-30.88l0 0zm-738.76 65.13c-5.98,23.59 -25.55,38.89 -49.96,38.9 -29.47,0 -51.89,-22.3 -51.86,-54.58 0.02,-32.23 19.94,-54.54 51.86,-54.57 26.46,-0.02 44.68,15.35 50.14,38.97l-33.76 0.01c-2.58,-7.1 -7.56,-12.64 -16.38,-12.65 -14.9,0 -18.82,15.78 -18.82,28.23 0,12.46 3.92,28.24 18.82,28.24 8.78,0 13.75,-5.5 16.35,-12.56l33.62 0zm-248.84 -82.69l43.09 0 18.76 70.1 18.76 -70.1 43.13 0 18.84 121.58 -35.56 0 -9.39 -71.05 -19.43 71.05 -32.69 0 -19.43 -71.05 -9.4 71.05 -35.58 0 18.9 -121.58zm552.77 60.53l0 58.15 -35.67 0 0 -103.68 35.67 0 0 8.1c9.03,-7.03 17.18,-10.65 35.69,-10.65 20.11,0 36.3,13.44 36.31,27.54l0 78.69 -35.92 0 0 -57.07c0.01,-9.47 -8.47,-17.2 -17.71,-17.2 -11.89,0 -17.81,10.51 -18.37,16.12zm318.16 -35.25l0 -25.3 36.07 0 0 118.68 -36.07 0 0 -5.76c-4.73,4.29 -10.95,8.65 -26.49,8.65 -17.49,0 -45.3,-9.72 -45.31,-51.47 -0.02,-41.7 27.78,-52.52 47.56,-52.52 14.35,-0.01 21.14,4.95 24.23,7.71l0 0zm-37.42 44.8c0,16.22 7.54,26.6 19.94,26.6 7.44,0 13.66,-3.25 17.5,-10.01l0 -31.13c-1.92,-6.87 -8.59,-11.94 -17.5,-11.94 -12.42,0 -19.94,10.26 -19.94,26.49l0 0zm-436.11 -3.05c0.02,-32.23 20.93,-54.55 54.41,-54.58 33.48,-0.03 54.37,22.34 54.39,54.58 0.03,32.26 -20.94,54.57 -54.39,54.57 -33.45,0 -54.44,-22.3 -54.41,-54.57zm75.07 0c0,-12.45 -4.31,-28.23 -20.66,-28.24 -16.37,0 -20.67,15.79 -20.67,28.24 0.01,12.45 4.31,28.23 20.67,28.23 16.35,0 20.66,-15.78 20.66,-28.23zm-211.05 -67.02l61.97 0c38.77,0 65.19,24.08 65.19,60.79 0,36.7 -26.42,60.79 -65.19,60.79l-61.97 0 0 -121.58zm41 92.84l18.73 0c12.14,0 26.92,-7.4 26.92,-32.05 0,-24.62 -14.78,-32.05 -26.92,-32.05l-18.73 0 0 64.1 0 0zm386.69 -80.38c25.58,-0.02 46.68,9.39 48.34,30.05l0 76.14 -36.1 0 0 -10.27c-8.77,7.52 -17.49,13.15 -33.28,13.15 -18.38,0 -33.18,-14.53 -33.18,-31.56 0,-17.03 10.5,-35.95 52.47,-35.94 10.83,0.01 13.97,-4.26 13.99,-9.33 0.02,-6.23 -7.18,-9.71 -13.18,-9.71 -6.01,0 -12.83,2.51 -12.83,9.02l-33.82 0c-0.01,-15.28 10.26,-31.52 47.59,-31.55zm-2.02 58.42c-8.32,0 -16.02,4.44 -16.02,12.96 0,5.51 3.26,10.27 11.77,10.27 8.14,0 16.83,-4.83 18.5,-14.84l0 -9.48c-2.76,1.5 -8.98,1.1 -14.25,1.1l0 0z"></path> <path class="fil2" d="M1202.41 1079.99l22.17 0c10.96,0 18.28,5.89 18.28,13.67 0,7.2 -5.54,11.91 -12.38,12.5l0 0.23c10.48,3.54 12.01,10.85 12.14,20.75l-9.9 0c-0.36,-11.91 -2.95,-17.1 -13.44,-17.1l-8.14 0 0 17.1 -8.73 0 0 -47.16zm8.72 22.51l10.38 0c8.14,0 11.42,-2.83 11.42,-8.14 0,-4.01 -2.46,-6.84 -10.02,-6.84l-11.79 0 0 14.99zm9.44 -38.91c0.02,0 0.05,0 0.08,0 22.35,0 40.48,18.13 40.48,40.48 0,0.02 0,0.05 0,0.08 0,22.52 -18.15,40.56 -40.56,40.56 -22.41,0 -40.56,-18.05 -40.56,-40.56 0,-0.02 0,-0.05 0,-0.08 0,-22.35 18.13,-40.48 40.48,-40.48 0.02,0 0.05,0 0.08,0l0 0zm-40.56 117.32c19.69,-0.41 35.46,-16.5 35.46,-36.2 0,-19.7 -15.76,-35.79 -35.46,-36.2 -19.99,0 -36.2,16.21 -36.2,36.2 0,19.99 16.21,36.2 36.2,36.2l0 0z"></path> </g> </g> </svg> 