<?xml version="1.0" encoding="UTF-8"?> <svg xmlns="http://www.w3.org/2000/svg" xmlns:xlink="http://www.w3.org/1999/xlink" xmlns:xodm="http://www.corel.com/coreldraw/odm/2003" xml:space="preserve" width="25.5mm" height="25.5mm" version="1.1" style="shape-rendering:geometricPrecision; text-rendering:geometricPrecision; image-rendering:optimizeQuality; fill-rule:evenodd; clip-rule:evenodd" viewBox="0 0 380.83 380.83"> <defs> <style type="text/css"> .fil2 {fill:#406FB5;fill-rule:nonzero} .fil0 {fill:#E9620B;fill-rule:nonzero} .fil1 {fill:white;fill-rule:nonzero} </style> </defs> <g id="图层_x0020_1"> <metadata id="CorelCorpID_0Corel-Layer"></metadata> <g id="_2876237732384"> <path class="fil0" d="M190.92 339.7c-23.76,-0.3 -47.49,-0.48 -70.94,-5.49 -37.25,-7.29 -66.23,-36.74 -72.91,-74.12 -4.21,-22.67 -6.33,-45.86 -6.33,-68.95 0,-23.23 2.17,-46.46 6.42,-69.28 7.75,-40.81 33.63,-65.85 74,-74.81 35.84,-7.84 72.2,-6.41 108.62,-4.43 20.7,1.14 40.77,5.06 59.34,15.2 24.45,13.47 38.57,34.68 44.69,61.37 8.05,35.13 6.64,70.85 5.17,106.49 -0.46,16.47 -3.39,32.83 -8.7,48.44 -8.62,26.28 -29.14,46.97 -55.33,55.83 -21.57,7.93 -44.08,8.98 -66.69,9.75 -5.78,0.13 -11.58,-0.02 -17.33,-0.02l-0 0z"></path> <g> <g> <path class="fil1" d="M280.62 134.43l-24.95 0c0,0 0,0 0,0 -1.06,0 -1.93,0.85 -1.94,1.91l0 114.19c0.02,1.07 0.88,1.93 1.94,1.94l24.95 0c1.06,-0.02 1.91,-0.88 1.91,-1.94 0,0 0,0 0,0l0 -114.21c0,-1.06 -0.86,-1.91 -1.91,-1.91l0 0.02zm-85.37 0l-95.24 0c-1.06,0 -1.91,0.86 -1.91,1.91l0 114.19c0,0 0,0 0,0 0,1.06 0.85,1.93 1.91,1.94l24.95 0c1.07,-0.02 1.93,-0.88 1.94,-1.94l0 -89.5c0.02,-1.07 0.88,-1.93 1.94,-1.94l53.86 0c0.41,-0.03 0.83,-0.04 1.25,-0.04 10.08,0 18.25,8.17 18.25,18.25 0,0.27 -0.01,0.55 -0.02,0.82l0 72.41c0.02,1.07 0.88,1.93 1.94,1.94l24.95 0c1.06,-0.02 1.91,-0.88 1.91,-1.94 0,0 0,0 0,0l0 -81.02c0.04,-0.65 0.06,-1.32 0.06,-1.98 0,-8.52 -3.38,-16.69 -9.4,-22.71 -6.29,-6.66 -15.07,-10.44 -24.23,-10.44 -0.7,0 -1.4,0.02 -2.1,0.06l-0.09 0zm0 0l0 0 0 0z"></path> </g> <g> <path class="fil1" d="M177.76 179.85l-26.33 0c-1.05,0.02 -1.9,0.86 -1.91,1.91l0 68.76c0,1.06 0.86,1.91 1.91,1.91l26.33 0c0,0 0,0 0,0 1.06,0 1.93,-0.85 1.94,-1.91l0 -68.82c-0.03,-1.05 -0.89,-1.9 -1.94,-1.91l0 0.06zm0 0l0 0 0 0z"></path> </g> </g> </g> <path class="fil2" d="M61.47 0l257.9 0c16.91,0 32.28,6.91 43.42,18.05 11.14,11.14 18.05,26.51 18.05,43.42l0 257.9c0,16.91 -6.91,32.28 -18.05,43.42 -11.14,11.14 -26.51,18.05 -43.42,18.05l-257.9 0c-16.91,0 -32.28,-6.91 -43.42,-18.05 -11.14,-11.14 -18.05,-26.51 -18.05,-43.42l0 -257.9c0,-16.91 6.91,-32.28 18.05,-43.42 11.14,-11.14 26.51,-18.05 43.42,-18.05zm257.9 7.47l-257.9 0c-14.85,0 -28.35,6.08 -38.13,15.87 -9.79,9.79 -15.87,23.29 -15.87,38.14l0 257.9c0,14.85 6.08,28.35 15.87,38.13 9.79,9.79 23.29,15.87 38.13,15.87l257.9 0c14.85,0 28.35,-6.08 38.14,-15.87 9.79,-9.79 15.87,-23.29 15.87,-38.13l0 -257.9c0,-14.85 -6.08,-28.35 -15.87,-38.14 -9.79,-9.79 -23.29,-15.87 -38.14,-15.87z"></path> </g> </svg> 