<?xml version="1.0" encoding="UTF-8"?> <svg xmlns="http://www.w3.org/2000/svg" xmlns:xlink="http://www.w3.org/1999/xlink" xmlns:xodm="http://www.corel.com/coreldraw/odm/2003" xml:space="preserve" width="25.5mm" height="25.5mm" version="1.1" style="shape-rendering:geometricPrecision; text-rendering:geometricPrecision; image-rendering:optimizeQuality; fill-rule:evenodd; clip-rule:evenodd" viewBox="0 0 1526.8 1526.8"> <defs> <style type="text/css"> .fil1 {fill:#332C2B;fill-rule:nonzero} .fil0 {fill:#406FB5;fill-rule:nonzero} </style> </defs> <g id="图层_x0020_1"> <metadata id="CorelCorpID_0Corel-Layer"></metadata> <path class="fil0" d="M246.43 0l1033.93 0c67.78,0 129.41,27.72 174.06,72.38 44.65,44.65 72.38,106.28 72.38,174.06l0 1033.93c0,67.78 -27.72,129.41 -72.38,174.06 -44.65,44.65 -106.28,72.38 -174.06,72.38l-1033.93 0c-67.78,0 -129.4,-27.72 -174.06,-72.38 -44.65,-44.65 -72.38,-106.27 -72.38,-174.06l0 -1033.93c0,-67.78 27.72,-129.41 72.38,-174.06 44.65,-44.65 106.27,-72.38 174.06,-72.38zm1033.93 29.94l-1033.93 0c-59.52,0 -113.64,24.37 -152.88,63.61 -39.24,39.24 -63.61,93.37 -63.61,152.89l0 1033.93c0,59.52 24.37,113.64 63.61,152.88 39.24,39.24 93.37,63.61 152.88,63.61l1033.93 0c59.52,0 113.65,-24.37 152.89,-63.61 39.24,-39.24 63.61,-93.37 63.61,-152.88l0 -1033.93c0,-59.52 -24.37,-113.65 -63.61,-152.89 -39.24,-39.24 -93.37,-63.61 -152.89,-63.61z"></path> <path class="fil1" d="M426.98 412.64c-1.2,1.2 -2.87,4.38 -3.92,7.24 -1.06,2.72 -2.87,7.54 -4.08,10.57 -5.43,14.64 -6.79,18.26 -9.05,24.15 -1.36,3.62 -3.32,8.9 -4.38,11.77 -1.06,2.87 -3.17,8.3 -4.53,12.08 -1.36,3.77 -3.47,9.36 -4.68,12.38 -1.2,3.17 -3.02,8.3 -4.23,11.32 -1.2,3.17 -3.17,8.6 -4.53,12.08 -3.02,8.3 -6.34,17.06 -9.05,24.15 -1.22,3.17 -3.32,8.76 -4.68,12.53 -1.36,3.77 -3.47,9.36 -4.68,12.38 -1.2,3.17 -3.02,8.3 -4.22,11.32 -1.21,3.17 -3.17,8.6 -4.53,12.08 -1.35,3.62 -3.32,9.06 -4.53,12.08 -1.2,3.17 -3.32,8.75 -4.68,12.53 -1.36,3.77 -3.47,9.21 -4.53,12.08 -1.06,2.87 -3.17,8.3 -4.53,12.08 -1.36,3.77 -3.47,9.36 -4.68,12.38 -2.72,7.24 -6.04,16 -9.05,24.15 -1.36,3.62 -3.32,8.9 -4.38,11.77 -1.05,2.87 -2.87,8 -4.23,11.32 -1.21,3.32 -3.47,9.06 -4.83,12.83 -3.32,8.6 -6.64,17.36 -9.05,24.15 -1.05,2.87 -3.02,8.15 -4.38,11.63 -1.36,3.62 -3.47,9.36 -4.83,12.83 -1.36,3.62 -3.02,7.7 -3.77,9.06 -0.75,1.5 -1.36,4.08 -1.36,5.73 0,3.02 0.9,3.02 41.97,3.02l42.12 0 1.81 -4.23c1.06,-2.26 4.68,-11.17 8,-19.93 3.32,-8.75 7.39,-19.32 9.06,-23.4 1.66,-4.22 3.62,-9.66 4.23,-12.07 1.51,-5.28 3.32,-10.12 13.58,-36.23 4.23,-10.87 8.3,-21.74 9.06,-24.15 2.11,-7.1 6.19,-17.96 7.4,-19.62 0.75,-0.75 1.66,-3.47 2.26,-5.89 0.75,-3.17 1.51,-3.93 2.72,-2.72 1.66,1.66 0.9,13.13 -5.74,102.19 -1.36,17.36 -2.12,34.72 -1.81,38.49l0.46 6.8 43.02 0.45c23.7,0.16 44.53,0 46.34,-0.45 1.81,-0.46 3.77,-2.27 4.23,-4.23 1.21,-4.08 9.36,-25.81 12.08,-32 1.05,-2.56 2.26,-5.89 2.72,-7.54 0.46,-1.66 2.11,-6.49 3.77,-10.57 1.51,-4.23 6.49,-17.06 10.72,-28.68 4.38,-11.62 8.91,-23.09 10.11,-25.36 1.21,-2.41 2.11,-5.28 2.11,-6.33 0,-1.21 1.06,-4.68 2.42,-7.86 3.77,-8.45 9.51,-22.94 13.43,-33.66 1.06,-2.86 3.17,-8.3 4.53,-12.07 1.36,-3.78 3.47,-9.21 4.53,-12.08 1.06,-2.87 3.02,-8.15 4.38,-11.78 1.36,-3.47 3.47,-9.05 4.68,-12.38 1.21,-3.32 3.32,-8.75 4.53,-12.08 1.21,-3.32 3.32,-8.75 4.53,-12.08 1.21,-3.32 3.32,-8.75 4.53,-12.08 1.21,-3.32 3.32,-8.75 4.53,-12.07 1.21,-3.32 3.32,-8.76 4.53,-12.08 1.21,-3.32 3.32,-8.91 4.68,-12.53 1.36,-3.47 3.32,-8.75 4.38,-11.62 2.11,-5.74 5.13,-13.88 8.9,-23.85 1.36,-3.47 3.47,-9.06 4.68,-12.38 4.68,-12.68 7.24,-19.02 9.36,-24.3 1.21,-3.02 1.96,-7.1 1.66,-9.06l-0.45 -3.62 -36.98 -0.46c-20.38,-0.3 -39.09,0 -41.66,0.46 -4.98,0.9 -4.83,0.3 -17.96,35.47 -1.21,3.32 -3.32,8.76 -4.53,12.08 -1.21,3.32 -3.17,8.6 -4.38,11.63 -1.21,3.17 -3.17,8.6 -4.53,12.07 -1.36,3.62 -3.47,9.36 -4.83,12.83 -4.68,12.38 -6.48,17.06 -11.17,29.89 -8.6,22.94 -9.36,24.91 -11.32,29.43 -1.06,2.42 -2.42,5.89 -2.87,7.39 -0.6,1.81 -1.51,2.42 -2.42,1.51 -0.9,-0.9 -0.6,-9.36 0.76,-23.25 1.2,-12.08 2.26,-27.32 2.26,-33.97 0,-6.64 1.06,-22.64 2.11,-35.47 2.57,-28.08 3.47,-55.85 1.96,-58.56 -1.81,-2.87 -86.04,-2.57 -89.06,0.3l0 0zm-103.37 445.96l0 -23.4 10.38 0c2.08,0 3.66,0.21 4.75,0.63 1.08,0.42 1.95,1.16 2.6,2.23 0.65,1.05 0.97,2.23 0.97,3.52 0,1.66 -0.54,3.07 -1.62,4.2 -1.08,1.14 -2.73,1.86 -4.98,2.17 0.83,0.4 1.45,0.79 1.87,1.17 0.9,0.83 1.76,1.86 2.56,3.11l4.05 6.38 -3.87 0 -3.1 -4.87c-0.89,-1.41 -1.65,-2.48 -2.22,-3.23 -0.59,-0.75 -1.11,-1.26 -1.58,-1.56 -0.46,-0.29 -0.93,-0.5 -1.41,-0.62 -0.35,-0.07 -0.92,-0.11 -1.72,-0.11l-3.59 0 0 10.39 -3.1 0zm3.1 -13.07l6.65 0c1.41,0 2.51,-0.15 3.31,-0.44 0.8,-0.29 1.41,-0.75 1.81,-1.41 0.41,-0.64 0.62,-1.34 0.62,-2.1 0,-1.11 -0.4,-2.02 -1.2,-2.74 -0.8,-0.71 -2.07,-1.07 -3.79,-1.07l-7.4 0 0 7.75zm6.13 -18.33c5.46,0 10.41,2.22 13.99,5.8 3.58,3.58 5.8,8.53 5.8,13.99 0,5.46 -2.22,10.41 -5.8,13.99 -3.58,3.58 -8.53,5.8 -13.99,5.8 -5.45,0 -10.41,-2.22 -13.99,-5.8 -3.59,-3.58 -5.81,-8.53 -5.81,-13.99 0,-5.46 2.22,-10.41 5.8,-13.99 3.58,-3.58 8.54,-5.8 13.99,-5.8zm12.04 7.74c-3.07,-3.08 -7.33,-4.99 -12.04,-4.99 -4.71,0 -8.98,1.91 -12.05,4.99 -3.08,3.08 -4.99,7.34 -4.99,12.05 0,4.71 1.9,8.97 4.98,12.04 3.08,3.08 7.34,4.99 12.05,4.99 4.71,0 8.97,-1.91 12.04,-4.99 3.08,-3.08 4.99,-7.34 4.99,-12.05 0,-4.71 -1.91,-8.98 -4.99,-12.05zm836.76 -400.9l0 -23.4 10.37 0c2.08,0 3.67,0.21 4.75,0.63 1.08,0.42 1.95,1.16 2.6,2.23 0.65,1.06 0.96,2.23 0.96,3.52 0,1.66 -0.54,3.07 -1.62,4.2 -1.07,1.14 -2.72,1.86 -4.97,2.17 0.83,0.4 1.45,0.79 1.87,1.17 0.9,0.83 1.76,1.86 2.56,3.11l4.05 6.38 -3.87 0 -3.09 -4.87c-0.9,-1.41 -1.65,-2.48 -2.23,-3.23 -0.59,-0.75 -1.11,-1.26 -1.57,-1.56 -0.46,-0.29 -0.93,-0.5 -1.41,-0.62 -0.35,-0.07 -0.92,-0.11 -1.72,-0.11l-3.59 0 0 10.39 -3.1 0zm3.1 -13.07l6.65 0c1.41,0 2.51,-0.15 3.31,-0.44 0.8,-0.29 1.4,-0.75 1.81,-1.41 0.41,-0.64 0.62,-1.34 0.62,-2.1 0,-1.11 -0.4,-2.02 -1.2,-2.74 -0.8,-0.71 -2.07,-1.07 -3.79,-1.07l-7.4 0 0 7.75zm6.12 -18.33c5.47,0 10.41,2.22 13.99,5.8 3.59,3.58 5.81,8.53 5.81,13.99 0,5.46 -2.22,10.41 -5.8,13.99 -3.58,3.58 -8.53,5.8 -13.99,5.8 -5.45,0 -10.41,-2.22 -13.99,-5.8 -3.58,-3.58 -5.8,-8.53 -5.8,-13.99 0,-5.46 2.22,-10.41 5.8,-13.99 3.58,-3.59 8.53,-5.81 13.99,-5.81zm12.05 7.74c-3.07,-3.08 -7.33,-4.98 -12.05,-4.98 -4.71,0 -8.97,1.9 -12.04,4.98 -3.08,3.08 -4.99,7.34 -4.99,12.05 0,4.71 1.91,8.97 4.99,12.04 3.08,3.08 7.34,4.99 12.05,4.99 4.71,0 8.98,-1.91 12.05,-4.99 3.08,-3.08 4.99,-7.34 4.99,-12.05 0,-4.71 -1.9,-8.98 -4.99,-12.05zm-438.1 4.08c-1.36,2.26 -3.17,5.74 -3.77,8 -0.75,2.11 -2.72,7.7 -4.53,12.23 -1.81,4.53 -3.77,9.97 -4.53,12.08 -0.75,2.11 -2.72,7.55 -4.53,12.08 -1.81,4.53 -3.92,10.27 -4.68,12.83 -0.75,2.42 -1.96,5.89 -2.71,7.54 -0.76,1.66 -4.53,11.78 -8.46,22.65 -3.92,10.71 -7.69,20.97 -8.45,22.64 -0.76,1.66 -1.96,4.98 -2.72,7.54 -0.75,2.42 -2.87,8.3 -4.68,12.83 -1.81,4.53 -3.78,9.96 -4.53,12.08 -0.75,2.11 -2.72,7.54 -4.53,12.08 -1.81,4.53 -3.78,9.96 -4.53,12.08 -0.75,2.11 -2.71,7.54 -4.53,12.07 -1.81,4.53 -3.77,9.97 -4.53,12.08 -0.76,2.11 -2.72,7.54 -4.53,12.07 -1.81,4.53 -3.77,9.96 -4.53,12.08 -0.75,2.11 -2.72,7.54 -4.53,12.07 -4.53,11.78 -7.55,19.78 -9.06,24.15 -0.75,2.11 -2.72,7.54 -4.53,12.08 -1.81,4.53 -3.77,9.96 -4.53,12.08 -0.76,2.11 -2.72,7.54 -4.53,12.07 -1.66,4.53 -4.53,12.38 -6.19,17.36 -1.66,4.98 -3.62,10.41 -4.37,12.08 -0.75,1.66 -3.17,7.69 -5.29,13.58 -2.11,5.74 -4.38,11.93 -5.13,13.59 -7.54,17.36 -11.02,15.85 37.43,15.85 41.97,0 42.27,0 44.53,-3.32 1.36,-1.81 2.42,-4.53 2.42,-5.89 0,-1.51 0.9,-4.53 2.11,-6.95 1.22,-2.26 3.32,-7.1 4.53,-10.71 1.36,-3.48 3.47,-9.06 4.68,-12.38 1.22,-3.32 3.17,-8.6 4.38,-11.77 1.21,-3.02 3.17,-8.46 4.53,-12.08 1.36,-3.47 3.32,-8.9 4.53,-12.07 1.21,-3.02 5.29,-13.74 9.21,-23.7 3.77,-9.96 7.85,-20.53 9.06,-23.39 7.55,-19.47 8.91,-22.49 9.96,-20.83 0.46,1.05 1.51,26.72 2.12,57.06 0.6,30.34 1.51,61.89 2.11,70.19l0.9 15.09 55.85 0.75 55.85 0.75 -7.39 3.32c-4.08,1.96 -8.45,3.47 -9.81,3.47 -1.51,0 -5.59,0.91 -9.36,2.11 -3.62,1.06 -11.02,3.32 -16.45,4.68 -11.32,3.02 -23.55,6.34 -33.21,9.05 -3.78,1.06 -11.17,3.02 -16.6,4.38 -5.44,1.51 -13.59,3.62 -18.12,4.83 -14.94,4.08 -24.76,6.8 -32.91,8.91 -9.06,2.57 -20.83,5.74 -32.45,8.91 -4.23,1.2 -12.23,3.32 -17.66,4.68 -5.44,1.51 -12.83,3.47 -16.6,4.53 -3.77,1.06 -11.17,3.02 -16.6,4.53 -5.44,1.51 -12.83,3.47 -16.6,4.53 -3.78,1.05 -11.17,3.02 -16.6,4.53 -5.44,1.36 -13.59,3.47 -18.12,4.83 -4.53,1.2 -11.92,3.17 -16.3,4.38 -11.62,3.17 -23.39,6.34 -32.45,8.75 -4.23,1.21 -12.23,3.32 -17.66,4.68 -5.43,1.51 -12.83,3.48 -16.6,4.53 -3.78,1.05 -11.17,3.02 -16.6,4.53 -11.93,3.17 -24.15,6.48 -33.21,9.05 -3.78,1.05 -11.17,3.02 -16.6,4.53 -5.44,1.36 -13.14,3.47 -17.36,4.53 -24.76,6.64 -30.04,7.4 -58.11,7.24 -28.68,0 -32.45,-0.46 -56.61,-8.01 -4.98,-1.5 -13.28,-5.13 -18.57,-7.84 -5.28,-2.72 -11.32,-5.89 -13.59,-7.1 -2.26,-1.21 -10.57,-8.6 -18.42,-16.6 -11.02,-11.17 -15.54,-17.06 -19.92,-25.81 -10.12,-20.99 -13.44,-34.27 -14.35,-58.11 -0.75,-19.33 2.26,-41.67 8.6,-63.4 1.81,-5.89 3.78,-12.68 4.53,-15.09 2.11,-7.25 5.43,-15.7 11.92,-30.8 9.66,-22.18 8.15,-21.28 -15.85,8.46 -29.73,36.98 -49.97,64.9 -74.87,103.85 -3.62,5.73 -7.24,11.62 -7.7,12.83 -0.6,1.2 -2.42,4.22 -4.08,6.79 -3.02,4.83 -4.53,7.4 -11.92,21.13 -17.06,31.25 -28.99,58.57 -35.63,81.51 -5.89,20.08 -6.64,23.1 -8.91,34.72 -3.47,17.81 -3.17,51.32 0.6,64.9 6.19,22.49 12.38,33.97 26.27,48.76 14.49,15.24 44.22,35.92 57.66,40 1.66,0.45 6.65,2.26 11.17,3.92 20.98,8 33.36,9.81 67.93,9.81 32.75,0 40.3,-0.91 67.17,-7.55 15.09,-3.77 37.74,-10.42 44.53,-12.98 1.96,-0.75 7.7,-2.72 12.83,-4.38 4.98,-1.66 14.18,-5.13 20.38,-7.69 6.19,-2.42 14.03,-5.59 17.35,-6.8 3.32,-1.35 8.15,-3.17 10.57,-4.37 2.57,-1.06 17.06,-7.1 32.46,-13.44 33.66,-14.04 35.32,-14.8 43.02,-18.11 3.32,-1.37 8.3,-3.47 11.02,-4.68 2.57,-1.2 7.24,-3.17 10.11,-4.38 6.65,-3.02 14.35,-6.34 21.14,-9.06 2.87,-1.21 7.7,-3.32 10.57,-4.53 8,-3.32 15.24,-6.34 21.58,-9.21 3.02,-1.36 7.69,-3.32 10.11,-4.38 11.02,-4.53 22.03,-9.21 31.7,-13.44 3.32,-1.51 8.15,-3.62 10.57,-4.68 2.57,-1.06 7.1,-3.02 10.11,-4.38 6.34,-2.87 13.59,-5.89 21.58,-9.2 12.38,-5.29 18.27,-7.86 35.92,-15.7 5.59,-2.57 10.72,-4.68 11.48,-4.68 0.75,0 3.62,-1.2 6.48,-2.56 7.25,-3.62 4.08,-2.26 77.44,-33.66 37.28,-16 68.83,-29.59 70.19,-30.19 4.53,-2.11 12.98,-5.74 21.14,-9.05 4.53,-1.81 12.08,-4.98 16.6,-7.1 13.59,-6.19 17.81,-8 23.4,-10.27 11.02,-4.68 25.21,-10.87 29.43,-12.83 1.36,-0.6 28.08,-12.23 59.62,-25.66 31.55,-13.44 58.27,-25.06 59.63,-25.66 2.56,-1.36 11.17,-4.98 18.57,-8 5.59,-2.41 15.85,-6.95 19.17,-8.61 1.36,-0.6 30.49,-13.13 64.91,-27.92 34.42,-14.8 63.55,-27.32 64.91,-27.93 2.11,-1.06 5.73,-2.72 18.11,-7.85 6.49,-2.72 16.6,-7.25 19.78,-8.75 1.2,-0.6 18.57,-8.15 38.49,-16.61 19.77,-8.45 36.68,-16 37.58,-16.75 0.75,-0.75 2.26,-1.36 3.32,-1.36 1.05,0 6.34,-2.11 11.47,-4.53 5.28,-2.57 10.11,-4.53 10.71,-4.53 0.46,0 5.59,-2.11 11.17,-4.68 5.59,-2.72 12.23,-5.74 14.65,-6.8 19.32,-8.45 23.09,-10.87 21.13,-14.18 -1.36,-2.12 -5.59,-1.96 -14.8,0.75 -9.81,3.02 -20.07,5.74 -32.75,9.06 -5.44,1.51 -12.83,3.47 -16.6,4.53 -3.78,1.05 -11.17,3.01 -16.6,4.53 -5.44,1.51 -12.84,3.47 -16.61,4.53 -3.77,1.06 -11.17,3.02 -16.6,4.53 -5.43,1.36 -13.44,3.48 -17.66,4.68 -4.38,1.21 -11.62,3.02 -15.84,4.22 -4.38,1.22 -12.38,3.32 -17.82,4.68 -5.43,1.51 -13.13,3.62 -17.36,4.68 -22.49,6.34 -37.28,10.41 -49.06,13.44 -5.44,1.51 -12.84,3.47 -16.6,4.53 -3.78,1.06 -11.17,3.02 -16.61,4.53 -5.44,1.51 -12.83,3.47 -16.6,4.53 -3.77,1.05 -11.17,3.02 -16.6,4.53 -5.44,1.36 -13.44,3.47 -17.66,4.68 -4.38,1.2 -11.62,3.01 -15.85,4.23 -4.38,1.2 -12.38,3.32 -17.81,4.83 -19.93,5.13 -26.57,6.95 -29.89,8.3 -1.96,0.75 -4.83,1.36 -6.49,1.36 -2.72,0 -3.02,-0.6 -2.11,-4.98 0.6,-2.57 1.96,-6.49 3.02,-8.6 1.06,-2.12 2.26,-5.44 2.42,-7.55l0.6 -3.77 -46.65 -0.46c-29.43,-0.15 -47.39,-0.9 -48.61,-1.96 -1.2,-1.05 -1.5,-2.71 -0.6,-5.59 4.38,-13.73 19.93,-55.09 24.91,-66.41 1.2,-2.72 2.26,-6.19 2.26,-7.85 0,-1.51 1.51,-3.92 3.32,-5.13 2.86,-2.11 9.51,-2.41 42.11,-2.41 43.17,0 40.76,0.6 44.38,-10.87 1.21,-3.63 3.47,-10.27 5.28,-14.8 12.38,-32.31 14.04,-37.29 13.14,-39.85 -0.9,-2.11 -5.29,-2.41 -38.79,-2.41 -30.34,0 -38.04,-0.46 -38.64,-2.11 -0.75,-1.96 12.98,-41.21 21.44,-60.99 1.2,-2.71 2.11,-5.89 2.11,-7.24 0,-4.23 7.86,-5.13 48.46,-5.13l40.6 0 2.41 -5.74c1.36,-3.02 3.02,-7.24 3.62,-9.36 0.75,-2.11 2.72,-7.55 4.53,-12.08 1.81,-4.53 3.77,-9.96 4.53,-12.07 0.75,-2.12 2.72,-7.4 4.38,-11.93 1.66,-4.53 2.72,-8.6 2.26,-9.06 -0.45,-0.46 -58.71,-1.06 -129.66,-1.36 -121.21,-0.3 -128.91,-0.15 -131.78,2.26 -3.02,2.72 -51.93,61.13 -62.19,74.42 -2.87,3.78 -6.79,8.45 -8.6,10.57 -1.81,2.11 -5.43,6.04 -7.85,8.76 -5.13,5.89 -7.69,4.07 -4.23,-3.17 1.21,-2.72 3.32,-7.7 4.68,-11.32 8.75,-23.4 9.51,-25.51 18.27,-47.85 3.77,-9.96 7.99,-20.38 9.21,-23.09 2.71,-6.34 2.71,-8.75 -0.31,-9.96 -1.36,-0.45 -20.23,-0.9 -42.12,-0.9l-39.7 0 -2.56 3.92zm217.67 16c-0.46,1.96 -2.26,7.24 -4.08,11.77 -1.81,4.53 -3.77,9.96 -4.53,12.08 -0.75,2.11 -2.72,7.55 -4.53,12.08 -1.81,4.53 -3.78,9.96 -4.53,12.07 -0.75,2.11 -2.71,7.55 -4.53,12.08 -1.81,4.53 -3.77,9.97 -4.53,12.08 -0.75,2.11 -2.72,7.55 -4.53,12.08 -1.81,4.53 -3.78,9.96 -4.53,12.08 -0.75,2.11 -2.72,7.54 -4.53,12.08 -1.81,4.53 -3.77,9.96 -4.52,12.08 -0.76,2.11 -2.72,7.54 -4.53,12.08 -1.81,4.53 -3.77,9.96 -4.53,12.07 -0.75,2.12 -2.72,7.55 -4.53,12.08 -1.81,4.53 -3.77,9.96 -4.53,12.08 -0.75,2.11 -2.72,7.54 -4.53,12.08 -1.81,4.53 -3.77,9.96 -4.53,12.08 -0.75,2.11 -2.71,7.54 -4.53,12.08 -1.81,4.53 -3.77,9.96 -4.53,12.08 -1.51,4.38 -4.53,12.38 -9.06,24.15 -1.81,4.52 -3.78,9.96 -4.53,12.07 -0.75,2.11 -2.72,7.54 -4.53,12.08 -1.81,4.53 -3.77,9.96 -4.53,12.08 -0.75,2.11 -2.72,7.54 -4.53,12.08 -1.81,4.53 -3.92,10.41 -4.68,13.13 -1.2,3.93 -5.28,7.7 -6.79,6.19 -0.15,-0.3 -1.06,-34.72 -1.96,-76.68 -0.9,-41.96 -2.11,-81.36 -2.57,-87.7 -1.05,-13.14 -1.05,-13.28 11.02,-25.96 4.07,-4.38 10.72,-11.63 14.79,-16.15 3.93,-4.53 14.5,-16.15 23.25,-25.66 8.75,-9.51 20.08,-21.73 25.06,-27.17 4.98,-5.44 14.94,-16.45 22.19,-24.3 7.24,-8 16,-17.66 19.47,-21.44 6.8,-7.7 9.66,-8.91 8.45,-3.77l0 0zm-317.14 -17.06c-1.36,1.51 -3.17,4.68 -3.92,7.1 -0.6,2.41 -2.72,8.15 -4.53,12.68 -1.81,4.53 -3.77,9.96 -4.53,12.08 -0.75,2.11 -2.72,7.54 -4.53,12.08 -1.81,4.53 -3.78,9.96 -4.53,12.08 -0.75,2.11 -2.71,7.54 -4.53,12.08 -1.81,4.53 -3.77,9.96 -4.53,12.08 -0.76,2.11 -2.72,7.54 -4.53,12.07 -1.81,4.53 -3.78,9.96 -4.53,12.08 -0.75,2.11 -2.72,7.55 -4.53,12.08 -1.81,4.53 -3.77,9.96 -4.53,12.08 -0.75,2.11 -2.72,7.55 -4.53,12.08 -1.81,4.53 -3.77,9.96 -4.53,12.08 -0.75,2.11 -2.71,7.55 -4.53,12.08 -1.81,4.53 -3.77,9.96 -4.53,12.08 -0.75,2.11 -2.72,7.54 -4.53,12.07 -1.81,4.53 -3.77,9.96 -4.53,12.08 -0.75,2.11 -2.72,7.55 -4.53,12.08 -4.53,11.77 -7.54,19.78 -9.06,24.15 -0.75,2.11 -2.72,7.54 -4.53,12.07 -1.81,4.53 -3.78,9.96 -4.53,12.08 -0.75,2.11 -2.72,7.55 -4.53,12.08 -1.81,4.53 -3.77,9.96 -4.53,12.08 -0.75,2.11 -2.72,7.55 -4.53,12.08 -1.81,4.53 -3.78,9.96 -4.53,12.08 -0.75,2.11 -2.71,7.55 -4.53,12.08 -1.81,4.53 -3.77,9.96 -4.53,12.08 -0.75,2.11 -2.72,7.54 -4.53,12.08 -6.19,15.69 -9.81,14.34 38.04,14.79l41.82 0.3 2.56 -4.83c1.36,-2.57 3.02,-6.49 3.62,-8.6 0.76,-2.11 2.72,-7.7 4.53,-12.23 1.81,-4.53 3.77,-9.96 4.53,-12.08 0.75,-2.11 2.71,-7.55 4.53,-12.08 1.81,-4.53 3.77,-9.96 4.53,-12.08 0.75,-2.11 2.72,-7.55 4.53,-12.08 1.81,-4.53 3.77,-9.96 4.53,-12.07 0.75,-2.11 2.72,-7.55 4.53,-12.08 1.81,-4.52 3.77,-9.96 4.53,-12.07 0.75,-2.11 2.72,-7.55 4.53,-12.08 1.81,-4.53 3.77,-9.96 4.53,-12.08 0.75,-2.11 2.72,-7.54 4.53,-12.08 1.81,-4.53 3.77,-9.96 4.53,-12.08 0.75,-2.11 2.71,-7.54 4.53,-12.08 1.81,-4.53 3.77,-9.96 4.53,-12.07 0.75,-2.12 2.72,-7.55 4.53,-12.08 1.81,-4.53 3.77,-9.96 4.53,-12.08 0.75,-2.11 2.72,-7.54 4.53,-12.08 1.81,-4.53 3.78,-9.96 4.53,-12.08 0.75,-2.11 2.72,-7.54 4.53,-12.08 1.81,-4.53 3.77,-9.96 4.53,-12.08 0.75,-2.11 2.72,-7.54 4.53,-12.07 1.81,-4.53 3.78,-9.96 4.53,-12.08 0.75,-2.11 2.71,-7.54 4.53,-12.07 1.81,-4.53 3.77,-9.96 4.53,-12.08 0.75,-2.11 2.72,-7.55 4.53,-12.08 1.81,-4.53 3.77,-9.96 4.53,-12.08 0.75,-2.11 2.72,-7.54 4.53,-12.08 7.4,-19.02 8.01,-21.43 5.74,-22.79 -1.06,-0.76 -19.63,-1.36 -41.36,-1.36 -36.53,0 -39.55,0.15 -41.97,2.87l0 0z"></path> </g> </svg> 