<?xml version="1.0" encoding="UTF-8"?> <svg xmlns="http://www.w3.org/2000/svg" xmlns:xlink="http://www.w3.org/1999/xlink" xmlns:xodm="http://www.corel.com/coreldraw/odm/2003" xml:space="preserve" width="25.5mm" height="25.5mm" version="1.1" style="shape-rendering:geometricPrecision; text-rendering:geometricPrecision; image-rendering:optimizeQuality; fill-rule:evenodd; clip-rule:evenodd" viewBox="0 0 652.65 652.65"> <defs> <style type="text/css"> .fil3 {fill:#406FB5;fill-rule:nonzero} .fil1 {fill:#004883;fill-rule:nonzero} .fil2 {fill:#E32934;fill-rule:nonzero} .fil0 {fill:white;fill-rule:nonzero} </style> </defs> <g id="图层_x0020_1"> <metadata id="CorelCorpID_0Corel-Layer"></metadata> <g id="_2879586525920"> <path class="fil0" d="M150.65 433.35c-58.99,0 -106.99,-48.01 -106.99,-107.03 0,-59.02 47.99,-107.03 106.99,-107.03 58.99,0 106.98,48.01 106.98,107.03 0,59.01 -47.99,107.03 -106.98,107.03l0 0z"></path> <g> <path class="fil1" d="M150.65 220.28c58.54,0 106,47.48 106,106.05 0,58.57 -47.46,106.04 -106,106.04 -58.54,0 -106,-47.48 -106,-106.04 0,-58.57 47.46,-106.05 106,-106.05l0 0zm0 -1.97c-59.54,0 -107.97,48.45 -107.97,108.01 0,59.56 48.43,108.01 107.97,108.01 59.53,0 107.96,-48.46 107.96,-108.01 0,-59.56 -48.43,-108.01 -107.96,-108.01z"></path> </g> <g id="_2879586526016"> <g> <path class="fil1" d="M607.99 282.83c1.19,-1.39 1.99,-2.97 1.99,-4.95 0,-0.02 0,-0.04 0,-0.06 0,-1.95 -0.71,-3.83 -1.99,-5.3 -1.39,-1.39 -3.17,-2.19 -5.16,-2.19 -1.98,0 -3.57,0.8 -5.16,2.19 -1.38,1.39 -1.99,3.18 -1.99,5.36 0,1.98 0.6,3.57 1.99,4.95 1.59,1.39 3.18,1.99 5.16,1.99 1.99,0 3.77,-0.6 5.16,-1.99l0 0zm0.4 73.04l0 -64.11 -10.72 0 0.2 64.11 10.52 0zm-24.82 -60.93l-1.78 -0.8c-4.77,-2.78 -10.52,-4.17 -17.47,-4.17 -7.54,0 -13.7,1.78 -18.26,5.36 -2.38,1.79 -3.97,3.57 -5.16,5.96 -1.19,2.18 -1.79,4.36 -1.79,6.94 0,4.37 1.99,7.94 5.57,11.11 3.37,2.98 8.33,5.36 14.88,7.34 5.55,1.79 9.33,3.57 11.71,5.36 1.99,1.99 3.18,4.17 3.18,6.94 0,2.98 -1.59,5.36 -4.37,7.35 -2.78,1.59 -6.75,2.58 -11.71,2.58 -5.36,0 -10.72,-1.39 -16.28,-3.97l-1.39 -0.99 -4.57 8.33 1.59 0.8c6.15,2.98 12.9,4.36 20.24,4.36 7.94,0 14.49,-1.59 19.65,-5.16 2.58,-1.59 4.37,-3.77 5.76,-5.95 1.38,-2.58 1.98,-5.36 1.98,-8.14l0 -0.2c0,-4.76 -1.98,-8.93 -5.76,-12.3 -3.17,-2.77 -8.33,-5.16 -15.08,-7.14 -5.16,-1.79 -8.93,-3.58 -11.12,-4.97 -2.38,-1.79 -3.37,-3.77 -3.37,-5.95 0,-2.58 0.99,-4.56 3.18,-6.35 2.38,-1.59 5.55,-2.58 9.72,-2.58 5.76,0 10.52,0.99 14.29,3.38l1.39 0.99 4.95 -8.13 0 0zm-64.7 4.76c-7.34,-6.35 -16.47,-9.72 -27,-9.72 -10.32,0 -18.85,3.17 -25.8,9.33 -7.74,6.95 -11.71,16.47 -11.71,28.98l0 49.82 10.31 0 0 -32.15c3.18,3.57 7.15,6.35 11.91,8.34 4.76,2.18 9.92,3.17 15.48,3.17 10.52,0 19.45,-3.17 26.79,-9.93 7.55,-6.55 11.31,-14.48 11.31,-23.82 0,-9.53 -3.76,-17.46 -11.31,-24.01zm-27 -0.8c7.74,0 14.49,2.39 19.65,7.15 5.36,4.76 8.14,10.71 8.14,17.87 0,6.74 -2.39,12.3 -7.15,17.06 -5.16,4.96 -12.11,7.55 -20.44,7.55 -8.34,0 -15.09,-2.58 -20.45,-7.55 -4.96,-4.96 -7.34,-10.51 -7.34,-17.06 0,-6.55 2.38,-12.31 7.34,-17.08 5.16,-5.15 11.91,-7.94 20.24,-7.94zm-53.98 3.97c-6.94,-8.74 -16.86,-12.9 -30.17,-12.9 -9.92,0 -18.46,2.78 -25.8,8.73 -7.93,6.15 -11.9,14.49 -11.9,24.81 0,5.75 1.59,11.51 4.96,16.87 2.98,5.16 7.55,9.33 13.7,12.5 6.15,2.98 12.7,4.37 19.85,4.37 6.75,0 13.1,-1.39 19.25,-4.37 6.15,-3.17 10.71,-7.34 13.69,-12.5l1.99 -3.37 -11.51 0c-2.39,3.37 -5.76,6.16 -10.12,8.34 -4.37,2.18 -9.13,3.18 -13.7,3.18 -6.35,0 -11.71,-1.59 -16.47,-4.77 -4.76,-3.37 -7.93,-7.54 -9.92,-13.1 6.54,-2.58 13.1,-3.97 20.24,-3.97l10.72 1.19 16.67 1.59c5.16,0 9.53,-0.79 13.5,-1.98 1.59,-0.6 2.58,-1.39 2.98,-2.39 0.59,-0.79 0.59,-2.18 0.2,-3.77 -1.2,-7.14 -3.78,-13.29 -8.14,-18.45l0 0zm-2.77 16.28l0.2 0.39 -5.76 0.79 -12.5 -1.19 -17.47 -1.39 -2.98 0c-5.56,0.4 -10.72,1.39 -15.68,3.18 0.79,-7.35 4.37,-13.1 10.32,-17.27 4.96,-3.18 10.52,-4.96 16.47,-4.96 9.32,0 16.47,2.98 21.83,8.93 2.78,3.58 4.76,7.34 5.56,11.52l0 0zm-111.35 -29.18c-10.12,0 -18.85,3.17 -25.8,9.32 -7.74,6.95 -11.51,16.47 -11.51,28.97l-0.2 49.82 10.72 0 -0.2 -32.15c3.18,3.57 7.15,6.35 11.71,8.34 4.96,2.18 10.12,3.17 15.68,3.17 10.52,0 19.45,-3.17 26.79,-9.92 7.54,-6.55 11.11,-14.49 11.11,-23.82 0,-9.53 -3.57,-17.46 -10.92,-24.01 -7.54,-6.35 -16.47,-9.72 -27.39,-9.72l0 0zm-20.24 16.87c5.36,-5.16 11.91,-7.94 20.24,-7.94 7.94,0 14.49,2.39 19.85,7.15 5.36,4.76 7.94,10.71 7.94,17.87 0,6.74 -2.38,12.3 -6.95,17.06 -5.15,4.96 -11.9,7.55 -20.64,7.55 -8.14,0 -15.08,-2.58 -20.44,-7.55 -4.77,-4.96 -7.15,-10.51 -7.15,-17.06 0,-6.55 2.38,-12.31 7.15,-17.07z"></path> </g> <path class="fil2" d="M211.26 245.97c-0.91,-0.69 -1.78,-1.44 -2.59,-2.24 -16.92,-11.93 -37.16,-18.36 -57.88,-18.36 -0.04,0 -0.11,0 -0.15,0 -55.73,0 -100.91,45.2 -100.91,100.95 0,0.03 0,0.11 0,0.14 0,21.67 7.01,42.78 19.97,60.14 33.77,-9.97 63.23,-27.32 88.47,-52.39 25.22,-24.95 42.94,-54.48 53.08,-88.25z"></path> <path class="fil1" d="M150.65 427.27c55.72,0 100.9,-45.2 100.9,-100.95 0,-19.74 -5.66,-38.14 -15.45,-53.68 -0.26,-0.26 -0.49,-0.54 -0.69,-0.84 2.04,6.74 3.09,13.77 3.09,20.82 0,0.02 0,0.06 0,0.08 0,11.46 -2.65,22.3 -7.85,32.45 -5.14,9.63 -12.38,18.02 -21.16,24.5 -7.05,5.2 -15.52,9.61 -25.48,13.22 -7.93,2.9 -18.25,5.9 -31.03,8.81l-36.86 8.29c-15.67,3.59 -29.94,7.44 -42.65,11.37 18.51,21.97 46.2,35.93 77.17,35.93l0.01 0z"></path> </g> </g> <path class="fil3" d="M105.34 0l441.96 0c28.97,0 55.31,11.85 74.4,30.94 19.09,19.09 30.94,45.43 30.94,74.4l0 441.96c0,28.97 -11.85,55.31 -30.94,74.4 -19.09,19.09 -45.43,30.94 -74.4,30.94l-441.96 0c-28.97,0 -55.32,-11.85 -74.4,-30.94 -19.09,-19.09 -30.94,-45.43 -30.94,-74.4l0 -441.96c0,-28.97 11.85,-55.32 30.94,-74.4 19.09,-19.09 45.43,-30.94 74.4,-30.94zm441.96 12.8l-441.96 0c-25.44,0 -48.58,10.42 -65.35,27.19 -16.77,16.77 -27.19,39.91 -27.19,65.35l0 441.96c0,25.44 10.42,48.58 27.19,65.35 16.77,16.77 39.91,27.19 65.35,27.19l441.96 0c25.44,0 48.58,-10.42 65.35,-27.19 16.77,-16.77 27.19,-39.91 27.19,-65.35l0 -441.96c0,-25.44 -10.42,-48.58 -27.19,-65.35 -16.77,-16.77 -39.91,-27.19 -65.35,-27.19z"></path> </g> </svg> 