<?xml version="1.0" encoding="UTF-8"?> <svg xmlns="http://www.w3.org/2000/svg" xmlns:xlink="http://www.w3.org/1999/xlink" xmlns:xodm="http://www.corel.com/coreldraw/odm/2003" xml:space="preserve" width="25.5mm" height="25.5mm" version="1.1" style="shape-rendering:geometricPrecision; text-rendering:geometricPrecision; image-rendering:optimizeQuality; fill-rule:evenodd; clip-rule:evenodd" viewBox="0 0 571.9 571.9"> <defs> <style type="text/css"> .fil0 {fill:#332C2B} .fil1 {fill:#406FB5;fill-rule:nonzero} </style> </defs> <g id="图层_x0020_1"> <metadata id="CorelCorpID_0Corel-Layer"></metadata> <path class="fil0" d="M528.05 317.9c0,-0.71 -0.31,-1.45 -0.94,-1.81 -0.63,-0.37 -1.33,-0.41 -2.05,-0.41l-3.66 0 0 8.39 1.02 0 0 -3.88 1.89 0 2.4 3.88 1.22 0 -2.53 -3.88c1.5,-0.04 2.65,-0.65 2.65,-2.3zm-3.53 -5.98c2.35,0 4.48,0.96 6.02,2.49 1.54,1.54 2.49,3.67 2.49,6.02 0,2.35 -0.96,4.48 -2.49,6.02 -1.54,1.54 -3.67,2.49 -6.02,2.49 -2.35,0 -4.47,-0.95 -6.02,-2.49 -1.54,-1.54 -2.49,-3.67 -2.49,-6.02 0,-2.35 0.95,-4.47 2.49,-6.02 1.55,-1.54 3.67,-2.5 6.02,-2.5zm4.91 3.6c-1.25,-1.26 -2.99,-2.03 -4.91,-2.03 -1.92,0 -3.66,0.78 -4.91,2.03 -1.25,1.25 -2.03,2.99 -2.03,4.91 0,1.92 0.78,3.66 2.03,4.91 1.26,1.25 3,2.03 4.91,2.03 1.92,0 3.66,-0.78 4.91,-2.03 1.26,-1.25 2.03,-3 2.03,-4.91 0,-1.92 -0.78,-3.66 -2.03,-4.91zm-5.44 3.88l-1.57 0 0 -2.97 2.4 0c1.05,0 2.18,0.16 2.18,1.46 0,1.71 -1.83,1.51 -3.01,1.51l0 0zm-43.83 -42.08l15.36 -16.4c0.89,-1.2 1.33,-2.05 1.33,-2.77 0,-1.21 -1.03,-1.69 -4.29,-1.69l-3.87 0 0 -10.35 41.94 0 0 10.35 -5.51 0c-6.36,0 -7.55,0.96 -16.43,12.16l-24.29 26.23 0 16.01c0,4.1 2.07,5.54 7.99,5.54l9.17 0 0 9.99 -58.74 0 0 -9.99 9.17 0c5.91,0 7.99,-1.44 7.99,-5.54l0 -16.01 -28.62 -31.65c-4.73,-5.53 -4.08,-6.74 -17.24,-6.74l0 -10.35 53.12 0 0 10.35 -3.78 0c-3.85,0 -5.48,0.72 -5.48,2.17 0,1.2 1.18,2.17 1.92,3.13l14.48 15.78c1.72,1.79 3.82,2.02 5.78,-0.22l0 0zm-356.45 -31.21l12.81 0 0 28.88 -11.83 0c-1.05,-5.77 -4.66,-8.02 -7.96,-11.05 -5.95,-5.46 -18.82,-10.01 -29.65,-10.01 -13.98,0 -25.77,4.34 -25.77,10.71 0,17.7 79.93,3.61 79.93,37.07 0,17.45 -17.12,27.2 -47.87,27.2 -10.65,0 -26.76,-3.3 -36.26,-8.35 -2.98,-1.72 -4.25,1.63 -4.8,5.83l-13.14 0 0 -29.85 11.89 0c2.62,7.58 6.23,9.14 9.55,12.16 5.76,5.3 19.48,9.15 32.06,9.03 18.97,-0.19 25.49,-4.33 25.49,-10.35 0,-6.02 -6.45,-7.46 -27.24,-10.71l-17.65 -2.89c-19.92,-3.01 -34.42,-7.46 -34.42,-23.35 0,-16.49 18.35,-26.84 47.35,-26.84 12.22,0 22.45,1.63 32.26,7.18 2.72,1.77 5.27,1.98 5.23,-4.65l0 0zm250.1 48.36l0.25 -32.11c0,-4.21 -2.19,-5.65 -8.46,-5.65l-7.35 0 0 -9.99 46.81 0 0 9.99 -6.1 0c-6.27,0 -8.46,1.44 -8.46,5.65l0 64.64 -18.32 -0.14 -59.33 -56.19 0 40.8c0,4.09 2.2,5.66 8.45,5.66l8.15 0 0 9.87 -48.61 0 0 -9.87 8.05 0c6.26,0 8.46,-1.57 8.46,-5.66l0 -49.11c0,-4.21 -2.19,-5.65 -8.46,-5.65l-8.05 0 0 -9.99 42.03 0 50.95 47.75zm-156.8 -51.5c-37.3,0 -60.66,16.49 -60.66,42.97 0,26 23.03,42.37 59.52,42.37 38.76,0 61.31,-16.13 61.31,-43.69 0,-24.8 -24.32,-41.65 -60.17,-41.65zm-0.85 74.87c-20.65,0 -32.52,-11.92 -32.52,-32.5 0,-20.1 12.39,-32.02 33.56,-32.02 20.3,0 32.17,12.16 32.17,32.86 0,20.22 -12.05,31.66 -33.21,31.66l0 0z"></path> <path class="fil1" d="M92.31 0l387.28 0c25.39,0 48.47,10.38 65.2,27.11 16.73,16.73 27.11,39.81 27.11,65.2l0 387.28c0,25.39 -10.38,48.47 -27.11,65.2 -16.73,16.73 -39.81,27.11 -65.2,27.11l-387.28 0c-25.39,0 -48.47,-10.38 -65.2,-27.11 -16.73,-16.73 -27.11,-39.81 -27.11,-65.2l0 -387.28c0,-25.39 10.38,-48.47 27.11,-65.2 16.73,-16.73 39.81,-27.11 65.2,-27.11zm387.28 11.21l-387.28 0c-22.29,0 -42.57,9.13 -57.27,23.83 -14.7,14.7 -23.83,34.98 -23.83,57.27l0 387.28c0,22.29 9.13,42.57 23.83,57.27 14.7,14.7 34.97,23.83 57.27,23.83l387.28 0c22.29,0 42.57,-9.13 57.27,-23.83 14.7,-14.7 23.83,-34.97 23.83,-57.27l0 -387.28c0,-22.29 -9.13,-42.57 -23.83,-57.27 -14.7,-14.7 -34.98,-23.83 -57.27,-23.83z"></path> </g> </svg> 