<?xml version="1.0" encoding="UTF-8"?> <svg xmlns="http://www.w3.org/2000/svg" xmlns:xlink="http://www.w3.org/1999/xlink" xmlns:xodm="http://www.corel.com/coreldraw/odm/2003" xml:space="preserve" width="25.5mm" height="25.5mm" version="1.1" style="shape-rendering:geometricPrecision; text-rendering:geometricPrecision; image-rendering:optimizeQuality; fill-rule:evenodd; clip-rule:evenodd" viewBox="0 0 2279.84 2279.84"> <defs> <style type="text/css"> .fil4 {fill:none;fill-rule:nonzero} .fil0 {fill:#406FB5;fill-rule:nonzero} .fil3 {fill:black;fill-rule:nonzero} .fil1 {fill:#397657;fill-rule:nonzero} .fil2 {fill:white;fill-rule:nonzero} </style> </defs> <g id="图层_x0020_1"> <metadata id="CorelCorpID_0Corel-Layer"></metadata> <path class="fil0" d="M367.97 0l1543.88 0c101.22,0 193.23,41.39 259.91,108.07 66.68,66.68 108.07,158.69 108.07,259.91l0 1543.88c0,101.22 -41.39,193.22 -108.07,259.9 -66.68,66.68 -158.69,108.07 -259.91,108.07l-1543.88 0c-101.22,0 -193.22,-41.39 -259.9,-108.07 -66.68,-66.68 -108.07,-158.69 -108.07,-259.9l0 -1543.88c0,-101.22 41.39,-193.23 108.07,-259.91 66.68,-66.68 158.69,-108.07 259.9,-108.07zm1543.88 44.7l-1543.88 0c-88.87,0 -169.69,36.39 -228.29,94.98 -58.6,58.6 -94.98,139.43 -94.98,228.3l0 1543.88c0,88.87 36.39,169.69 94.98,228.29 58.6,58.6 139.42,94.98 228.29,94.98l1543.88 0c88.87,0 169.7,-36.39 228.3,-94.98 58.6,-58.6 94.98,-139.42 94.98,-228.29l0 -1543.88c0,-88.87 -36.39,-169.7 -94.98,-228.3 -58.6,-58.6 -139.43,-94.98 -228.3,-94.98z"></path> <g id="_2879962163440"> <path class="fil1" d="M250.76 1132.84c0,-493.13 399.76,-892.94 892.94,-892.94 493.15,0 892.93,399.8 892.93,892.94 0,493.18 -399.78,892.94 -892.93,892.94 -493.19,0 -892.94,-399.78 -892.94,-892.94z"></path> <path class="fil2" d="M277.08 1132.84c0,-478.59 387.98,-866.58 866.61,-866.58 478.6,0 866.61,387.99 866.61,866.58 0,478.6 -388,866.61 -866.61,866.61 -478.63,-0.02 -866.61,-388.01 -866.61,-866.61z"></path> <path class="fil1" d="M305.31 1132.84c0,-462.99 375.36,-838.34 838.4,-838.34 463.02,0 838.37,375.34 838.37,838.34 0,463.03 -375.37,838.37 -838.37,838.37 -463.06,0 -838.4,-375.34 -838.4,-838.37z"></path> <g> <path class="fil2" d="M625.47 1129.31c0,-285.16 231.15,-516.31 516.28,-516.31 285.13,0 516.26,231.15 516.26,516.31 0,285.11 -231.13,516.25 -516.26,516.25 -285.13,0 -516.28,-231.14 -516.28,-516.25l0 0zm597.92 -760.99c14.14,12.69 18.15,29.38 17.42,47.89 -3.99,13.08 -11.23,25.77 -22.87,34.86 14.17,10.51 28.32,21.41 30.49,40.27 4.01,18.51 -1.46,35.18 -11.98,48.98 -22.12,25.02 -57.32,18.52 -89.26,19.57l-84.35 2.22 -0.57 -7.67 -8.68 -191.56 -0.36 -4.18c55.51,-0.36 120.81,-14.72 170.17,9.63l0 0zm157.14 27.02c-14.89,43 -34.47,85.47 -45.02,130.82 -0.09,0.81 -0.13,1.65 -0.13,2.47 0,11.25 7.72,21.04 18.65,23.67 8.92,4.92 21.6,5.83 28.31,0 28.68,-40.26 42.3,-90.35 60.28,-135.54 22.84,8 40.65,19.42 62.8,27.77 -23.62,50.08 -38.14,109.06 -70.8,150.23 -23.58,20.69 -60.96,15.59 -89.24,8.69 -32.31,-11.6 -67.51,-32.27 -77.3,-68.56 -7.6,-24.85 26.87,-110.14 45.72,-161.1l66.74 21.56 0 0zm0 0l0 0 0 0z"></path> </g> <g> <path class="fil2" d="M857.61 633.96l-47.91 31.53c-17.88,-9.41 -28.31,-15.77 -41.37,-21.75l-53.04 44.64c5.45,13.09 12.41,29.03 18.2,43.55l-47.37 52.95 -3.8 -8.34 -83.84 -199.2 76.57 -65.87 6.17 3.83c60.08,36.67 121.81,79.92 182.67,114.55l-6.29 4.13 0 0zm11.96 -7.3c-25.15,-61.34 -55.95,-132.98 -78.74,-190.51 57.71,-23.24 141.18,-80.38 192.69,-27.2 13.05,14.51 14.87,34.82 15.23,53.34 -3.24,11.94 -6.18,23.96 -14.14,33.75 17.22,21.2 49.2,45.26 71.32,66.3l-2.72 0.92 -65.32 14.41c-23.24,-18.69 -36.39,-31.86 -56.6,-45.72 -8.72,1.05 -14.72,6.17 -22.9,9.79l22.5 51.55 -61.31 33.37 0 0zm0 0l0 0 0 0z"></path> </g> <g> <path class="fil1" d="M1166.78 402.06c5.07,5.41 4.01,16.69 1.06,22.86 -9.41,10.91 -26.83,10.51 -41.34,8.69 1.05,-12.33 -3.5,-24.31 -2.57,-36.99 12.34,1.81 33.78,-4.38 42.85,5.44l0 0zm-239.49 50.06c3.59,9.07 3.81,23.85 -3.92,29.24l-35.91 15.23c-8.96,-16.48 -12.77,-27.77 -18.94,-41.17 16.67,-6.17 45.32,-31.2 58.78,-3.29l0 0zm251.46 32.67c2.88,12.72 -2.9,25.78 -15.24,28.32 -11.61,1.8 -20.3,0.72 -32.65,1.07 -1.82,-13.08 -2.88,-30.49 -1.82,-41.38 16.67,2.17 41.76,-6.88 49.72,11.98z"></path> </g> <g> <path class="fil2" d="M1668.61 555.56c12.36,15.23 20.72,34.1 26.15,53.32 -15.24,8.19 -26.85,17.45 -41.38,23.96 -3.59,-22.5 -15.95,-45.36 -38.08,-56.59 -10.52,-6.19 -26.15,-7.28 -38.1,-3.28 -18.52,6.88 -34.47,22.86 -41.37,41.37 -6.18,17.78 0.72,35.19 10.91,48.97 14.13,15.98 33.04,24.35 54.38,25.07 -9.59,15.77 -14.83,25.74 -23.92,38.1 -35.59,-5.1 -68.96,-24.69 -89.27,-57.72 -17.42,-27.92 -18.49,-70.74 -3.25,-100.14 15.95,-32.3 47.54,-52.99 81.61,-57.71 41.02,-1.45 78.02,14.89 102.32,44.66l0 0zm0 0l0 0 0 0z"></path> </g> <g> <path class="fil1" d="M725.87 616.52c-10.21,9.39 -21.18,18.21 -32.62,26.12 -8.72,-20.69 -17.08,-39.2 -26.14,-62.06 20.85,11.1 39.15,23.95 58.78,35.94l-0.01 -0.01zm0 0l0 0 0 0z"></path> </g> <g> <path class="fil2" d="M1777.51 684.01c-16.67,16.68 -38.8,30.86 -56.63,46.82 28.33,6.15 60.24,5.06 89.28,9.79 13.07,18.89 19.96,37.03 32.67,59.87l-106.69 -7.6c-23.59,37 -44.99,74.73 -65.33,113.2 -12.69,-18.51 -22.46,-42.42 -34.83,-63.11 13.81,-27.96 31.75,-57.53 45.58,-85.49 -23.76,14.72 -44.63,33.76 -68.82,48.99l-37.69 -50.63c50.79,-43.54 105.59,-82.36 158.94,-121.89l4.33 -1.56 39.2 51.6 0 0.01zm-1197.88 -13.42c-9.63,19.96 -22.32,33.55 -31.18,52.61l124.09 81.64c-6.54,18.5 -20.68,36.67 -32.68,54.43l-127.36 -79.48c-11.42,15.06 -19.61,30.5 -31.04,49.74 -16.69,-11.06 -28.49,-18.33 -41.9,-27.92 31.6,-52.66 61.53,-101.98 96.35,-156.62l43.73 25.61 0 0zm0 0l0 0 0 0z"></path> </g> <g> <path class="fil3" d="M928.77 1155.94c0.01,0.87 0.03,1.74 0.03,2.61 0,7.73 -0.89,15.45 -2.63,22.98 -19.23,38.83 -50.42,72.91 -55.48,117.59 -22.13,14.12 -40.31,38.81 -71.86,30.48 -1.1,8.33 1.45,21 4.35,30.45 -25.02,-1.06 -42.1,17.42 -63.16,26.13 -11.24,-3.6 -14.14,-18.15 -18.48,-28.3 24.65,-8.33 42.42,-33.03 70.74,-32.62 3.28,-9.12 -1.83,-17.45 -3.28,-26.14 -35.21,-15.63 -91.08,77.27 -95.77,-3.27 35.18,-2.18 57.68,-34.84 92.54,-38.1l1.05 -26.14c-39.55,-4 -64.96,36.66 -104.5,32.65l-8.73 -34.81c45.71,2.88 72.95,-38.1 116.5,-40.3 5.78,-7.6 6.51,-18.86 7.63,-29.39 -47.54,-6.19 -80.19,46.46 -130.63,30.47 0,0 -1.72,-21.91 -2.66,-34.28l264.34 0 0 0.01zm0 0l0 0 0 0z"></path> </g> <g> <path class="fil3" d="M984.53 1155.94c1.61,19.33 -3.12,38.61 -21.32,58.27 -26.14,30.8 -52.61,69.64 -33.74,111.05 19.97,45.68 82.74,81.25 55.51,138.22 -14.86,35.93 -50.44,63.16 -48.99,105.6 -9.41,-4 -19.2,-8 -27.2,-15.23 0,-54.06 76.9,-87.81 40.25,-144.78 -3.24,11.23 -3.96,26.48 -6.51,39.19 -12.72,33.03 -39.93,59.49 -50.1,93.66 -17.02,-6.57 -34.82,-20.36 -48.99,-34.87l19.62 -12c-2.17,-7.27 -8,-13.43 -13.08,-19.6 -12.72,-1.79 -21.05,6.54 -31.56,9.83 -9.08,-8 -17.81,-15.26 -25.04,-25.05 6.52,-18.54 57.34,-3.25 31.55,-33.74 -17.41,-10.88 -34.81,4.72 -50.06,12l-20.68 -26.14c17.77,-10.88 35.54,-26.13 57.66,-21.77 5.45,9.82 5.84,24.29 16.34,29.41 37.38,-0.72 63.87,-29.04 92.53,-51.18 -19.98,-29.72 -36.27,-70.76 -18.52,-106.69 14.22,-36.01 51.28,-66.32 52.96,-106.12l29.35 0 0 -0.04zm0 0l0 0 0 0z"></path> </g> <path class="fil3" d="M1037.71 1155.94c1.86,16.61 -0.87,33.64 -12.46,51.69 -23.57,31.98 -54.41,65.68 -40.29,107.77 13.43,42.48 66.42,68.23 63.16,117.59 -0.36,58.41 -68.23,94.72 -48.99,160.04l-33.74 -10.91c-13.41,-58.04 48.27,-87.79 48.99,-141.49 8.72,-61.73 -70.07,-84.6 -65.35,-144.79 -0.33,-45.74 39.94,-74.77 57.72,-113.23 2.47,-7.46 3.75,-15.3 3.75,-23.16 0,-1.16 -0.03,-2.35 -0.08,-3.5l27.3 0z"></path> <g> <path class="fil3" d="M1224.26 1155.94c-0.51,3.43 -0.78,6.91 -0.78,10.37 0,11.77 2.98,23.4 8.62,33.72 23.58,37.34 64.96,76.94 39.15,125.22 -27.18,39.87 -72.54,78.73 -54.42,130.59 19.96,45.37 61.7,88.55 39.18,144.82l-33.72 7.6c26.84,-54.82 -13.41,-109.21 -36.99,-156.75 -28.69,-68.23 61.66,-100.94 63.11,-163.3 -0.35,-40.26 -43.17,-63.13 -52.22,-100.15 -18.52,-15.63 -37.76,6.19 -59.9,2.15 -16.33,3.29 -41.38,-22.5 -51.15,5.45 -11.62,40.98 -64.63,71.12 -41.37,119.74 22.15,43.2 75.45,74.76 57.66,130.67 -15.95,52.22 -68.56,101.96 -35.91,162.18 -13.43,-4.34 -38.48,4 -38.1,-17.42 -20.69,-72.95 67.5,-115.4 40.27,-188.32 -12.69,-44.65 -70.4,-69.34 -57.69,-123.05 9.4,-44.2 58.94,-75.12 51.98,-123.55l162.3 0 0 0.01zm0 0l0 0 0 0z"></path> </g> <g> <path class="fil3" d="M1276.72 1155.94c-0.7,12.42 1.81,24.76 9.81,36.46 25.05,40.65 68.6,85.3 43.56,138.28 -28.3,42.44 -77.66,85.62 -50.09,141.53 19.96,33.37 50.83,66.73 42.49,107.77l-32.68 10.88c21.77,-76.56 -84.93,-121.59 -40.27,-198.14 27.58,-41.01 76.92,-79.49 48.99,-133.91 -16.68,-33.71 -51.17,-53.68 -50.09,-95.81l1.17 -7.05 27.11 0 0 -0.02zm0 0l0 0 0 0z"></path> </g> <g> <path class="fil3" d="M1330.77 1155.94c0,0.31 -0.01,0.65 -0.01,0.98 0,10.53 2.77,20.89 8.01,30.02 23.59,42.49 66.06,82.75 50.1,136.07 -4.4,16.36 -17.41,29.07 -20.69,45.73 27.62,22.88 53.72,48.61 90.35,50.08 13.05,-8.33 5.8,-45.36 32.65,-28.31l39.18 19.62c-2.86,10.51 -11.6,19.97 -19.56,27.2 -14.88,-7.24 -29.39,-15.96 -47.93,-15.25 -5.46,5.81 -10.19,12.35 -9.77,20.68 13.05,2.15 24.99,7.6 35.9,15.23 -5.07,10.91 -14.89,17.77 -23.96,26.13l-30.48 -10.91c-5.06,7.28 -15.63,14.9 -11.94,22.88 6.88,2.93 14.52,6.9 19.57,12 -13.43,14.51 -30.46,23.9 -46.82,33.76 -14.12,-46.11 -60.61,-78.43 -56.62,-131.73l-2.15 -2.18c-10.91,12.3 -7.24,31.93 -6.53,47.87 13.07,33.38 44.27,59.2 49,95.81 -5.45,9.42 -17.8,11.24 -27.24,15.23 1.1,-66.03 -99.04,-116.07 -34.81,-182.87 21.41,-32.7 57.33,-63.88 44.6,-108.89 -13.05,-43.48 -59.29,-70.46 -58.89,-119.19l28.03 0.01 0 0.01zm0 0l0 0 0 0z"></path> </g> <g> <path class="fil3" d="M1620.78 1155.94c0.36,12.28 1.48,22.82 -3.31,35.4 -49.71,14.14 -82.37,-38.48 -130.6,-30.53l5.43 27.25c44.63,1.46 72.57,44.26 118.67,42.41 -6.54,13.09 2.91,47.55 -26.12,33.77 -30.11,-7.24 -51.9,-33.77 -84.93,-33.77 -3.98,7.3 -1.46,17.48 -2.16,26.14 34.83,5.45 59.87,34.87 94.68,40.3 -3.28,11.97 -6.54,25.36 -16.33,32.65 -28.33,-6.89 -50.44,-32.32 -80.59,-31.59l-5.4 25.02c28.66,0.72 47.18,26.13 72.94,33.73 0.7,10.57 -8.71,19.98 -14.14,29.41 -22.84,-6.87 -40.29,-26.48 -66.4,-25.02 -0.38,-9.85 5.44,-21.05 3.23,-31.57 -29.34,8.72 -48.98,-18.51 -70.71,-34.87 -0.63,-53.51 -56.96,-88.65 -59.94,-138.77l265.69 0 0 0.01zm0 0l0 0 0 0z"></path> </g> <g> <path class="fil3" d="M664.43 1155.94c-0.34,-4.84 -0.62,-8.18 -0.62,-8.18 45.01,17.44 84.53,-14.86 123,-31.54 9.79,-2.93 25.02,2.16 29.42,-8.72 -0.39,-8.34 14.85,-18.15 2.17,-23.96 -56.27,-7.63 -93.63,60.25 -151.32,29.41l-4.38 -8.72c12,-164.01 104.52,-322.58 258.01,-400.61 137.17,-78.4 347.65,-71.85 476.83,19.6 68.61,42.08 134.27,111.41 169.87,181.82 34.07,61.68 49.7,130.96 54.39,204.64 -59.53,44.99 -99.44,-42.43 -160.05,-22.86 3.28,9.45 5.1,19.24 12.03,27.22 53.72,-0.38 90.71,55.89 146.95,33.71l0.04 8.18 -265.69 0c-0.06,-1.26 -0.1,-2.55 -0.1,-3.82 0,-9.7 1.9,-19.33 5.6,-28.29 18.51,-42.82 12.68,-98.37 -7.64,-138.29 -6.17,-10.51 -17.05,-18.84 -27.22,-25.02 14.9,31.6 33.03,68.95 23.96,107.78 -1.05,29.97 -18.69,58.74 -18.89,87.64l-28.03 0 0.12 -3.8c10.51,-50.82 42.49,-104.9 16.34,-158.96 -7.27,-21.76 -23.56,-46.44 -45.7,-55.51 33.01,37.76 46.06,99.43 27.18,150.25 -9.51,20.21 -22.65,44.25 -23.94,68.01l-27.14 0c11.24,-59.77 56.72,-116.31 24.95,-180.18 -8.35,-18.86 -25.02,-38.09 -43.53,-48.99l-1.12 1.11c37.03,35.93 48.27,95.09 28.31,142.6 -9.33,27.88 -29.79,55.58 -33.94,85.46l-162.32 0c-0.6,-4.26 -1.6,-8.46 -2.96,-12.53 -18.51,-52.26 -56.27,-104.5 -33.77,-165.49 6.19,-17.42 18.53,-32.31 29.39,-47.89 -35.93,19.23 -54.06,59.88 -53.34,101.25 -1.56,44.96 31.69,83.5 36.41,124.65l-27.3 0c-2.17,-42.55 -40.49,-75.74 -34.13,-123.57 2.15,-35.2 14.11,-66.06 36.97,-92.53 -31.55,12.69 -44.6,48.99 -53.32,79.46 -15.13,48.88 20.98,92.83 24.6,136.63l-29.35 0c0.03,-0.84 0.04,-1.69 0.04,-2.53 0,-9.02 -1.73,-17.97 -5.08,-26.35 -19.58,-50.43 -26.49,-118.62 10.88,-163.27 -20.32,5.45 -32.29,30.82 -39.19,50.06 -22.48,49.24 5.95,94.88 6.92,142.08l-264.33 0.01 0 0.01zm0 0l0 0 0 0z"></path> </g> <g> <path class="fil2" d="M1167.85 735.17l58.8 3.27 -1.09 5.45 -43.54 41.38c7.6,18.52 15.23,37.03 22.86,55.49 33.02,-19.2 64.61,-43.16 104.52,-45.72 -3.64,21.07 -19.6,43.22 -17.45,64.23 24.69,-6.88 47.22,-22.12 74.08,-20.68 -16.73,30.86 -41.05,61.72 -42.5,100.17 -36.65,-13.76 -74.39,-30.49 -115.38,-37 -87.46,-14.9 -171.67,4.34 -243.9,39.2 -6.16,-36.65 -23.92,-68.59 -45.71,-99.07 13.06,-4.35 29.02,2.88 42.48,6.55 11.25,3.24 20.68,10.85 32.66,13.05 2.15,-21.77 -10.51,-43.18 -19.58,-63.16 6.17,-4.72 15.96,-1.11 22.86,1.11 28.65,10.86 54.42,27.91 80.56,43.54 13.41,-15.63 18.46,-38.13 23.92,-58.82l-44.6 -40.27 0 -4.34 58.78 -3.29c9.78,-18.49 16.33,-38.09 26.12,-56.6 11.98,16.33 15.98,37.76 26.12,55.5l0 0zm0 0l0 0 0 0z"></path> </g> <g> <path class="fil3" d="M1188.53 853.84l-5.41 5.44c-27.22,-2.89 -55.89,0.72 -81.68,1.12 -2.89,-2.91 -8.67,-7.27 -3.27,-10.91l41.38 -31.6c17.08,9.85 35.2,22.53 48.99,35.95l0 0zm0 0l0 0 0 0z"></path> </g> <g> <path class="fil2" d="M462.41 869.06c-22.51,17.45 -38.48,42.86 -33.74,71.87 2.55,4.35 5.07,10.86 10.88,11.95 18.14,0 24.31,-19.57 32.64,-31.56 9.8,-21.77 28.7,-45.38 54.45,-47.89 22.13,-1.44 41.04,4.35 55.54,21.77 22.14,26.51 18.14,69.32 7.64,100.19 -9.83,22.86 -25.07,46.04 -46.82,60.95l-39.21 -23.96c21.42,-14.84 43.93,-39.2 46.82,-66.4 0,-9.8 -2.15,-22.86 -14.17,-23.97 -25.02,7.28 -27.55,37.38 -44.6,54.44 -13.05,13.45 -29.4,23.58 -50.09,20.67 -19.24,-1.1 -35.59,-13.05 -46.82,-28.3 -21.42,-32.64 -10.9,-80.58 2.17,-105.59 8,-14.17 17.45,-28.31 30.51,-39.22 10.86,6.2 23.59,15.65 34.82,25.05l0 0zm1421.79 28.36c18.85,30.46 26.15,70.73 16.33,107.76l-40.29 -2.17c5.47,-24.33 9.45,-54.8 -7.62,-75.13 -5.06,-6.17 -14.13,-9.82 -20.68,-6.54 -22.13,24.68 1.86,60.27 -11.94,88.2 -6.56,12.72 -16.35,27.96 -30.51,33.72 -22.89,8.72 -51.19,4.36 -68.61,-13.05 -34.08,-35.57 -50.08,-90.75 -28.27,-137.18l42.44 0c-7.26,18.19 -12.29,43.92 -5.43,65.34 3.61,9.07 7.97,20.68 18.52,23.94 34.82,1.26 11.22,-48.62 19.57,-71.87 3.27,-17.41 12.7,-35.54 30.46,-43.54 32.65,-15.96 70.78,2.17 86,30.53l0 0zm-1067.96 68.56c35.18,-13.45 83.08,-36.65 120.82,-11.97 -8,11.24 -23.56,17.43 -34.85,27.2 -18.48,18.14 -40.98,40.25 -54.39,63.13 -45.36,-9.09 -81.68,17.45 -119.78,32.68 -14.51,2.88 -33.75,4.34 -45.72,-5.45 35.93,-59.18 86.71,-113.6 74.03,-191.61 3.99,-6.9 10.87,-1.07 15.23,1.1 27.97,21.78 41.39,51.91 44.67,84.94l0 0zm716.32 -77.3c-14.13,74.02 36.65,126.29 70.76,182.9 -39.17,26.13 -76.23,-14.17 -113.21,-23.97 -16.33,-2.51 -35.55,-4.72 -51.19,-2.17 -22.46,-34.81 -52.59,-67.49 -89.24,-87.07 2.15,-11.95 18.85,-12.73 30.49,-14.17 32.29,-3.24 60.59,10.17 87.09,23.98 5.08,-11.95 7.26,-25.41 10.86,-38.1 8.74,-21.41 25.82,-43.22 47.96,-52.26 4.69,0.72 7.96,5.81 6.49,10.86l0 0zm-302.66 67.52c1.12,6.15 7.28,11.6 3.28,18.51 -21.41,-6.55 -45.7,-2.93 -66.4,5.41 -18.52,13.79 -15.62,42.13 -10.9,62.06l5.45 4.38c9.07,-2.19 9.45,-13.79 17.41,-16.34 13.45,3.27 31.94,8.01 44.63,0 11.24,0.37 10.91,15.96 11.97,23.96 -7.97,42.1 -25.76,87.81 -68.56,107.77 -17.79,8.72 -40.67,2.88 -57.72,-3.27 -42.08,-25.04 -65.68,-74.75 -60.95,-119.73 3.27,-6.89 8.36,-12.35 16.36,-7.63 17,11.6 35.51,-9.07 51.14,5.41 18.86,-8.34 7.62,-31.53 7.62,-48.96 -15.23,-19.61 -41.37,-16.72 -64.21,-15.25 -10.18,-6.19 0.72,-15.97 3.24,-22.86 24.68,-34.83 71.88,-35.55 113.21,-30.48 21.06,5.44 44.3,14.52 54.43,37.03l0 0zm0 0l0 0 0 0z"></path> </g> <g> <path class="fil2" d="M1103.62 1006.26l0 4.38c-12.33,-1.1 -32.27,-13.44 -43.53,2.16 -7.24,3.24 -8.33,-5.11 -7.6,-9.81 -0.25,-0.81 -0.38,-1.66 -0.38,-2.51 0,-4.09 2.91,-7.6 6.92,-8.37 17.02,-4 36.26,1.07 44.6,14.14l0 0zm129.56 -5.45c-0.34,4.38 0.73,9.45 -4.35,12 -13.8,-5.44 -33.04,-13.07 -46.82,-2.16 -8,-17.07 14.17,-13.45 21.77,-18.51 11.27,-0.4 24.34,-0.73 29.41,8.67l0 0zm0 0l0 0 0 0z"></path> </g> <g> <path class="fil3" d="M1163.49 1070.49c-6.51,13.79 -27.57,5.08 -39.2,7.6 -3.95,-1.46 -1.46,-5.78 -2.17,-8.69 11.62,-8 32.3,-9.06 41.37,1.09l0 0zm17.41 30.51c-8.66,13.05 -21.74,29.36 -39.15,28.31 -19.62,1.45 -23.96,-14.53 -38.13,-23.96l-1.06 -6.57c26.14,4.01 54.8,-1.05 78.35,2.22z"></path> </g> <g> <path class="fil2" d="M502.68 1270.8c21.98,-0.11 43.08,0.73 65.79,0.21l-50.52 42.24c4.87,17.77 9.07,38.21 15.23,62.07l-50.08 -34.84c-21.05,9.62 -33.74,21.41 -55.5,32.65l17.41 -59.89c-16.53,-13.53 -35.01,-26.37 -50.64,-40.15 22.79,-0.59 42.74,0.33 64.77,-0.12 10.17,-19.03 14.71,-40.85 23.96,-59.89l19.58 57.73 0 0zm258.01 286.32c4.38,10.51 10.69,18.84 13.38,34.62 -11.6,7.3 -26.25,13.28 -39.51,19.82 -3.23,-23.96 -24.3,-47.2 -47.88,-53.37 -19.58,-4.87 -41,4.39 -55.5,21.8 -11.99,14.12 -15.63,34.47 -11.99,52.25 9.44,24.63 35.57,43.25 62.05,43.25l7.62 0.22c-5.45,13.54 -12.06,26.76 -19.56,39.28 -43.93,-1.48 -88.2,-27.25 -104.54,-69.73 -14.14,-34.44 -7.96,-79.09 14.17,-107.77 26.86,-34.08 69.68,-43.53 111.05,-34.81 27.89,7.64 54.03,28.67 70.71,54.45l0 0.01zm845.85 -22.84l2.75 2.69 -65.32 60.8 21.77 26.29c18.5,-14.52 38.48,-29.95 58.25,-48.43 10.17,8.54 18.35,18.48 27.94,29.78 -19.56,18.65 -39.92,31.36 -56.95,49.16 7.26,9.08 12.86,19.39 23.92,30.3l70.42 -58.07 30.09 31.03c-39.91,37.9 -83.44,76.93 -124.81,107.21l-123.03 -158.95c39.2,-32.68 72.21,-62.42 106.7,-96.91 10.54,6.93 18.17,15.98 28.27,25.1l0 0zm-692.35 133.89c22.14,28.31 22.49,72.19 8.69,104.48 -15.39,32.86 -44.97,53.74 -77.28,60.98 -39.15,6.15 -76.18,-6.51 -104.5,-33.71 -25.02,-27.6 -38.82,-67.15 -26.13,-105.61 11.25,-41.73 51.88,-72.21 93.64,-77.29 43.16,-2.57 83.08,17.39 105.58,51.14l0 0zm0 0l0 0 0 0z"></path> </g> <g> <path class="fil1" d="M868.5 1694.31c12.29,28.65 -1.84,56.95 -21.8,77.26 -12.69,10.16 -29.31,16.55 -45.98,10.38 -10.51,-5.08 -23.49,-14.37 -26.39,-25.63 -8,-29.02 5.27,-56.23 25.56,-76.18 12.34,-10.18 30.13,-15.96 45.7,-8.72 9.45,2.89 19.97,13.44 22.91,22.89l0 0zm0 0l0 0 0 0z"></path> </g> <g> <path class="fil2" d="M1301.79 1740.35c-30.53,4.4 -59.69,8.04 -88.76,12.76 2.93,14.31 1.63,23.91 3.82,34.81 27.22,-0.53 51.01,-5.37 76.41,-8.65l7.43 46.54c-25.76,4.77 -52.01,8.69 -78.02,11.3 0.73,21.03 3.52,46.78 3.19,70.01 -21.4,3.27 -44.51,5.62 -66.65,4.17l-13.05 -198.47 -0.17 -4.17c48.65,-4.47 97.85,-11.15 145.93,-18.65 2.02,14.89 6.56,32.08 9.83,50.43l0.04 -0.1zm166.49 -89.22l1.83 3.41 -79.71 39.98 13.49 31.34c24.33,-9.28 45.32,-17.93 69.49,-30.14 7.38,11.07 12.43,22.91 18.5,36.41 -21.92,11.68 -44.6,20.74 -68.5,31.23 4.44,10.74 6.68,18.57 14.47,35.79l83.9 -35.99 20.2 38.27c-48.96,25.17 -101.69,50.39 -149.93,67.85l-73.47 -187.06c46.79,-20.35 86.86,-39.66 129.6,-63.04 8.21,9.57 12.97,20.41 20.14,31.95l0 0zm-352.08 111.78c-30.36,-5.09 -59.33,-10.51 -88.4,-14.88 -1.62,14.55 -5.73,23.32 -6.95,34.33 26.1,7.77 50.2,10.41 75.4,15.01l-7.08 46.67c-26.12,-3.25 -52.07,-7.65 -77.77,-13.01 -5.7,20.24 -10.82,45.65 -18.19,67.69 -21.41,-3.41 -44.16,-8.22 -64.8,-16.36l47.89 -193.02 1.14 -3.99c48.27,10.43 97.71,19.54 144.79,26.58 -2.64,14.79 -3.55,32.59 -5.99,51.01l-0.03 -0.04zm705.51 -491.82c21.94,-0.09 41.55,0.5 65.74,0.23l-50.47 42.24c4.91,17.76 9.07,38.19 15.2,62.07l-50.04 -34.88c-21.1,9.59 -33.77,21.42 -55.54,32.66l17.42 -59.87c-16.51,-13.5 -35.04,-26.4 -50.59,-40.18 22.74,-0.59 42.7,0.32 64.72,-0.12 8.89,-19.83 15.24,-38.86 23.99,-59.89l19.57 57.73 0 0zm0 0l0 0 0 0z"></path> </g> <path class="fil4" d="M2052.28 1139.91c0,511.51 -408.73,926.66 -912.35,926.66 -503.61,0 -912.38,-415.14 -912.38,-926.66 0,-511.5 408.75,-926.64 912.38,-926.64 503.62,0 912.35,415.14 912.35,926.64z"></path> <path class="fil3" d="M1732.76 1883.23c28.37,0 52.7,22.06 52.7,51.99 0,30.2 -24.31,52.25 -52.7,52.25 -28.65,0 -52.96,-22.05 -52.96,-52.25 0,-29.93 24.31,-51.99 52.96,-51.99zm0 8.43c-24.17,0 -42.84,18.69 -42.84,43.56 0,25.42 18.69,43.83 42.84,43.83 23.89,0 42.57,-18.39 42.57,-43.83 -0.02,-24.86 -18.69,-43.56 -42.57,-43.56zm-11.1 73.76l-9.26 0 0 -60.13 23.03 0c14.33,0 21.36,5.34 21.36,17.14 0,10.82 -6.76,15.46 -15.74,16.58l17.13 26.42 -10.1 0 -16.02 -26.13 -10.41 0 0 26.13 0.02 0zm0 -33.71l10.96 0c11.24,0 14.89,-3.25 14.89,-9.85 0,-5.76 -2.81,-8.99 -13.34,-8.99l-12.51 0 0 18.84 0 0z"></path> </g> </g> </svg> 