<?xml version="1.0" encoding="UTF-8"?> <svg xmlns="http://www.w3.org/2000/svg" xmlns:xlink="http://www.w3.org/1999/xlink" xmlns:xodm="http://www.corel.com/coreldraw/odm/2003" xml:space="preserve" width="25.5mm" height="25.5mm" version="1.1" style="shape-rendering:geometricPrecision; text-rendering:geometricPrecision; image-rendering:optimizeQuality; fill-rule:evenodd; clip-rule:evenodd" viewBox="0 0 571.9 571.9"> <defs> <style type="text/css"> .fil1 {fill:#332C2B;fill-rule:nonzero} .fil0 {fill:#406FB5;fill-rule:nonzero} </style> </defs> <g id="图层_x0020_1"> <metadata id="CorelCorpID_0Corel-Layer"></metadata> <path class="fil0" d="M92.31 0l387.28 0c25.39,0 48.47,10.38 65.2,27.11 16.73,16.73 27.11,39.81 27.11,65.2l0 387.28c0,25.39 -10.38,48.47 -27.11,65.2 -16.73,16.73 -39.81,27.11 -65.2,27.11l-387.28 0c-25.39,0 -48.47,-10.38 -65.2,-27.11 -16.73,-16.73 -27.11,-39.81 -27.11,-65.2l0 -387.28c0,-25.39 10.38,-48.47 27.11,-65.2 16.73,-16.73 39.81,-27.11 65.2,-27.11zm387.28 11.21l-387.28 0c-22.29,0 -42.57,9.13 -57.27,23.83 -14.7,14.7 -23.83,34.98 -23.83,57.27l0 387.28c0,22.29 9.13,42.57 23.83,57.27 14.7,14.7 34.97,23.83 57.27,23.83l387.28 0c22.29,0 42.57,-9.13 57.27,-23.83 14.7,-14.7 23.83,-34.97 23.83,-57.27l0 -387.28c0,-22.29 -9.13,-42.57 -23.83,-57.27 -14.7,-14.7 -34.98,-23.83 -57.27,-23.83z"></path> <g> <path id="path20" class="fil1" d="M492.41 281.68l0 9.58 6.73 0 0 9.5c0.02,0.85 -0.02,1.77 -0.17,2.5 -0.27,1.77 -1.95,4.79 -6.73,4.79 -4.75,0 -6.4,-3.02 -6.69,-4.79 -0.12,-0.73 -0.17,-1.65 -0.17,-2.5l0 -30.02c0,-1.06 0.07,-2.22 0.3,-3.1 0.33,-1.6 1.74,-4.75 6.53,-4.75 5.02,0 6.28,3.33 6.57,4.75 0.19,0.95 0.2,2.53 0.2,2.53l0 3.64 16.54 0 0 -2.16c0,0 0.07,-2.25 -0.13,-4.35 -1.24,-12.32 -11.4,-16.22 -23.03,-16.22 -11.66,0 -21.61,3.93 -23.06,16.22 -0.13,1.12 -0.33,3.14 -0.33,4.35l0 27.61c0,1.2 0.04,2.13 0.26,4.33 1.08,11.98 11.46,16.23 23.08,16.23 11.69,0 22,-4.25 23.1,-16.23 0.2,-2.2 0.22,-3.13 0.24,-4.33l0 -17.6 -23.23 0zm-114.05 -28.81l-16.61 0 0 48.59c0.03,0.85 0,1.8 -0.15,2.49 -0.35,1.63 -1.73,4.77 -6.31,4.77 -4.52,0 -5.94,-3.14 -6.26,-4.77 -0.17,-0.7 -0.19,-1.65 -0.17,-2.49l0 -48.59 -16.61 0 0 47.08c-0.02,1.21 0.07,3.69 0.15,4.34 1.15,12.27 10.81,16.25 22.89,16.25 12.1,0 21.76,-3.98 22.93,-16.25 0.09,-0.65 0.21,-3.13 0.14,-4.34l0 -47.08zm-152.62 0l-8.28 51.34 -8.28 -51.34 -26.79 0 -1.42 65.68 16.41 0 0.44 -60.8 11.29 60.8 16.65 0 11.3 -60.8 0.45 60.8 16.46 0 -1.47 -65.68 -26.76 0zm-99.2 0l-12.16 65.68 17.74 0 9.17 -60.8 8.95 60.8 17.62 0 -12.12 -65.68 -29.19 0zm309.87 52.88l-15.47 -52.88 -24.37 0 0 64.99 16.12 0 -0.94 -54.57 16.61 54.57 23.38 0 0 -64.99 -16.23 0 0.89 52.88zm-149.13 -35.79c-0.29,-1.3 -0.21,-2.68 -0.06,-3.4 0.47,-2.1 1.88,-4.4 5.95,-4.4 3.79,0 6.02,2.36 6.02,5.91l0 4.01 16.19 0 0 -4.58c0,-14.15 -12.69,-16.37 -21.87,-16.37 -11.57,0 -21.02,3.81 -22.74,14.46 -0.46,2.9 -0.57,5.47 0.16,8.75 2.81,13.28 25.93,17.13 29.28,25.52 0.59,1.59 0.42,3.62 0.12,4.81 -0.5,2.19 -1.97,4.38 -6.33,4.38 -4.09,0 -6.55,-2.35 -6.55,-5.89l-0 -6.3 -17.43 0 0 5.01c0,14.52 11.37,18.9 23.62,18.9 11.73,0 21.42,-4.01 22.97,-14.87 0.74,-5.61 0.18,-9.27 -0.12,-10.65 -2.72,-13.62 -27.35,-17.71 -29.21,-25.31l0 0zm-213.6 -0.16c-0.32,-1.32 -0.24,-2.72 -0.07,-3.45 0.45,-2.09 1.87,-4.43 6.01,-4.43 3.84,0 6.1,2.39 6.1,5.97l0 4.06 16.38 0 0 -4.61c0,-14.29 -12.88,-16.56 -22.17,-16.56 -11.67,0 -21.2,3.87 -22.94,14.6 -0.48,2.94 -0.56,5.54 0.13,8.85 2.84,13.43 26.19,17.31 29.58,25.81 0.64,1.58 0.44,3.61 0.13,4.85 -0.54,2.21 -2.02,4.44 -6.42,4.44 -4.1,0 -6.56,-2.39 -6.56,-5.98l-0.02 -6.32 -17.63 -0 0 5.02c0,14.68 11.53,19.1 23.88,19.1 11.87,0 21.61,-4.04 23.2,-15.04 0.79,-5.67 0.2,-9.35 -0.07,-10.75 -2.77,-13.79 -27.68,-17.87 -29.55,-25.56l0 0zm0 0l0 0 0 0z"></path> </g> </g> </svg> 