<?xml version="1.0" encoding="UTF-8"?> <svg xmlns="http://www.w3.org/2000/svg" xmlns:xlink="http://www.w3.org/1999/xlink" xmlns:xodm="http://www.corel.com/coreldraw/odm/2003" xml:space="preserve" width="25.5mm" height="25.5mm" version="1.1" style="shape-rendering:geometricPrecision; text-rendering:geometricPrecision; image-rendering:optimizeQuality; fill-rule:evenodd; clip-rule:evenodd" viewBox="0 0 2279.84 2279.84"> <defs> <style type="text/css"> .fil1 {fill:#406FB5;fill-rule:nonzero} .fil0 {fill:#D81E06;fill-rule:nonzero} </style> </defs> <g id="图层_x0020_1"> <metadata id="CorelCorpID_0Corel-Layer"></metadata> <g id="_2879951615904"> <path class="fil0" d="M1140.82 1881.56l208.42 -1172.01c198.49,0 261.64,21.65 270.67,110.98 0,0 133.53,-49.63 200.29,-150.68 -262.56,-121.8 -526.01,-127.21 -526.01,-127.21l-153.38 187.67 -154.29 -187.67c0,0 -263.45,5.42 -526.01,127.21 66.77,101.05 200.29,150.68 200.29,150.68 9.03,-89.32 71.28,-110.98 268.88,-110.98l211.12 1172.01 0 0z"></path> <path class="fil0" d="M1139.92 488.49c212.02,-1.81 454.73,32.48 702.85,140.75 33.38,-59.54 41.5,-85.71 41.5,-85.71 -270.67,-107.37 -525.1,-144.36 -744.35,-145.26 -218.35,0.89 -472.78,37.89 -744.35,145.26 0,0 11.73,32.48 41.5,85.71 249.02,-108.27 491.73,-142.56 702.85,-140.75l0 0z"></path> </g> <path class="fil1" d="M367.97 0l1543.88 0c101.22,0 193.23,41.39 259.91,108.07 66.68,66.68 108.07,158.69 108.07,259.91l0 1543.88c0,101.22 -41.39,193.22 -108.07,259.9 -66.68,66.68 -158.69,108.07 -259.91,108.07l-1543.88 0c-101.22,0 -193.22,-41.39 -259.9,-108.07 -66.68,-66.68 -108.07,-158.69 -108.07,-259.9l0 -1543.88c0,-101.22 41.39,-193.23 108.07,-259.91 66.68,-66.68 158.69,-108.07 259.9,-108.07zm1543.88 44.7l-1543.88 0c-88.87,0 -169.69,36.39 -228.29,94.98 -58.6,58.6 -94.98,139.43 -94.98,228.3l0 1543.88c0,88.87 36.39,169.69 94.98,228.29 58.6,58.6 139.42,94.98 228.29,94.98l1543.88 0c88.87,0 169.7,-36.39 228.3,-94.98 58.6,-58.6 94.98,-139.42 94.98,-228.29l0 -1543.88c0,-88.87 -36.39,-169.7 -94.98,-228.3 -58.6,-58.6 -139.43,-94.98 -228.3,-94.98z"></path> </g> </svg> 